<svg width="10" height="18" viewBox="0 0 10 18" fill="none" xmlns="http://www.w3.org/2000/svg">
<path d="M8.27344 0.491926L0.515438 8.48393C0.374938 8.62443 0.304688 8.79242 0.304688 8.98792C0.304688 9.18342 0.374938 9.35918 0.515438 9.51518L8.27344 17.5072C8.41394 17.6322 8.57794 17.6947 8.76544 17.6947C8.95294 17.6947 9.11694 17.6244 9.25744 17.4839C9.39794 17.3434 9.46819 17.1794 9.46819 16.9919C9.46819 16.8044 9.39794 16.6404 9.25744 16.4999L1.94494 8.99993L9.25744 1.49993C9.39794 1.35943 9.46819 1.19543 9.46819 1.00793C9.46819 0.820426 9.39794 0.656426 9.25744 0.515926C9.11694 0.375426 8.95294 0.305176 8.76544 0.305176C8.57794 0.305176 8.41394 0.367676 8.27344 0.492676V0.491926Z" fill="black"/>
</svg>
