<svg width="19" height="8" viewBox="0 0 19 8" fill="none" xmlns="http://www.w3.org/2000/svg">
<path d="M17.1664 0.708569L9.66643 5.93178L2.16643 0.708569C2.02593 0.608212 1.86193 0.558033 1.67443 0.558033C1.48693 0.558033 1.32293 0.608212 1.18243 0.708569C1.04193 0.808926 0.97168 0.926069 0.97168 1.06C0.97168 1.19393 1.03418 1.30553 1.15918 1.39482L9.15118 6.95285C9.29168 7.05321 9.46368 7.10339 9.66718 7.10339C9.87068 7.10339 10.0427 7.05321 10.1832 6.95285L18.1752 1.41143C18.3002 1.31107 18.3627 1.19107 18.3627 1.05143C18.3627 0.911783 18.2924 0.79464 18.1519 0.699997C18.0114 0.605355 17.8474 0.557854 17.6599 0.557497C17.4724 0.55714 17.3084 0.607319 17.1679 0.708033L17.1664 0.708569Z" fill="#7CC427"/>
</svg>
