<svg width="8" height="12" viewBox="0 0 8 12" fill="none" xmlns="http://www.w3.org/2000/svg">
<path d="M6.8297 5.28946L2.5897 1.04946C2.49674 0.955732 2.38613 0.881337 2.26428 0.830569C2.14242 0.7798 2.01171 0.753662 1.8797 0.753662C1.74769 0.753662 1.61698 0.7798 1.49512 0.830569C1.37326 0.881337 1.26266 0.955732 1.1697 1.04946C0.983448 1.23682 0.878906 1.49027 0.878906 1.75446C0.878906 2.01865 0.983448 2.2721 1.1697 2.45946L4.7097 5.99946L1.1697 9.53946C0.983448 9.72682 0.878906 9.98028 0.878906 10.2445C0.878906 10.5086 0.983448 10.7621 1.1697 10.9495C1.26314 11.0421 1.37395 11.1155 1.49579 11.1652C1.61763 11.215 1.74809 11.2402 1.8797 11.2395C2.01131 11.2402 2.14177 11.215 2.26361 11.1652C2.38544 11.1155 2.49626 11.0421 2.5897 10.9495L6.8297 6.70946C6.92343 6.6165 6.99782 6.5059 7.04859 6.38404C7.09936 6.26218 7.1255 6.13147 7.1255 5.99946C7.1255 5.86745 7.09936 5.73674 7.04859 5.61488C6.99782 5.49302 6.92343 5.38242 6.8297 5.28946Z" fill="#7CC427"/>
</svg>
