<svg width="22" height="21" viewBox="0 0 22 21" fill="none" xmlns="http://www.w3.org/2000/svg">
<path d="M3.10152 18.0615L6.26577 17.007L6.82827 17.265C8.10977 17.9215 9.50052 18.2498 11.0005 18.2498C13.5475 18.1718 15.6685 17.3398 17.3635 15.7538C19.0585 14.1678 19.9375 12.2498 20.0005 9.99979C19.938 7.74979 19.059 5.83179 17.3635 4.24579C15.668 2.65979 13.547 1.82779 11.0005 1.74979C8.45352 1.82779 6.33252 2.65979 4.63752 4.24579C2.94252 5.83179 2.06352 7.74979 2.00052 9.99979C2.00052 10.8123 2.14127 11.617 2.42277 12.414C2.70427 13.211 3.11827 13.961 3.66477 14.664L4.18077 15.3435L3.10152 18.0615ZM2.02302 19.9838C1.72602 20.0778 1.47202 20.0113 1.26102 19.7843C1.05002 19.5573 0.999273 19.2955 1.10877 18.999L2.46852 15.5768C1.84352 14.7488 1.35902 13.862 1.01502 12.9165C0.671024 11.971 0.499023 10.9983 0.499023 9.99829C0.561523 7.42029 1.56152 5.17429 3.49902 3.26029C5.43652 1.34629 7.93652 0.342291 10.999 0.248291C14.0615 0.342291 16.5615 1.34629 18.499 3.26029C20.4365 5.17429 21.4365 7.42029 21.499 9.99829C21.4365 12.5763 20.4365 14.8223 18.499 16.7363C16.5615 18.6503 14.0615 19.6543 10.999 19.7483C9.29602 19.7483 7.67877 19.3733 6.14727 18.6233L2.02302 19.9838ZM7.24977 11.499H14.7498C15.2498 11.499 15.4998 11.749 15.4998 12.249C15.4998 12.749 15.2498 12.999 14.7498 12.999H7.24977C6.74977 12.999 6.49977 12.749 6.49977 12.249C6.49977 11.749 6.74977 11.499 7.24977 11.499ZM7.99977 6.99904H13.9998C14.4998 6.99904 14.7498 7.24904 14.7498 7.74904C14.7498 8.24904 14.4998 8.49904 13.9998 8.49904H7.99977C7.49977 8.49904 7.24977 8.24904 7.24977 7.74904C7.24977 7.24904 7.49977 6.99904 7.99977 6.99904Z" fill="#00902F"/>
</svg>
