<svg width="334" height="261" viewBox="0 0 334 261" fill="none" xmlns="http://www.w3.org/2000/svg">
<rect width="334" height="261" rx="4" fill="#151515" fill-opacity="0.9"/>
<path d="M171.5 72V69H168.5V67H171.5V64H173.5V67H176.5V69H173.5V72H171.5ZM175.45 82C173.3 82 171.204 81.5207 169.163 80.562C167.121 79.604 165.313 78.3373 163.738 76.762C162.163 75.1873 160.896 73.379 159.938 71.337C158.979 69.2957 158.5 67.2 158.5 65.05C158.5 64.75 158.6 64.5 158.8 64.3C159 64.1 159.25 64 159.55 64H163.6C163.833 64 164.042 64.075 164.225 64.225C164.408 64.375 164.517 64.5667 164.55 64.8L165.2 68.3C165.233 68.5333 165.229 68.7457 165.188 68.937C165.146 69.129 165.05 69.3 164.9 69.45L162.475 71.9C163.175 73.1 164.054 74.225 165.113 75.275C166.171 76.325 167.333 77.2333 168.6 78L170.95 75.65C171.1 75.5 171.296 75.3873 171.538 75.312C171.779 75.2373 172.017 75.2167 172.25 75.25L175.7 75.95C175.933 76 176.125 76.1123 176.275 76.287C176.425 76.4623 176.5 76.6667 176.5 76.9V80.95C176.5 81.25 176.4 81.5 176.2 81.7C176 81.9 175.75 82 175.45 82ZM161.525 70L163.175 68.35L162.75 66H160.525C160.608 66.6833 160.725 67.3583 160.875 68.025C161.025 68.6917 161.242 69.35 161.525 70ZM170.475 78.95C171.125 79.2333 171.788 79.4583 172.463 79.625C173.138 79.7917 173.817 79.9 174.5 79.95V77.75L172.15 77.275L170.475 78.95Z" fill="white"/>
<rect x="148.5" y="54" width="38" height="38" rx="19" stroke="white" stroke-width="2"/>
<path d="M105.6 138.328C105.6 135.832 106.14 133.612 107.22 131.668C108.3 129.7 109.8 128.176 111.72 127.096C113.664 125.992 115.86 125.44 118.308 125.44C121.308 125.44 123.876 126.232 126.012 127.816C128.148 129.4 129.576 131.56 130.296 134.296H123.528C123.024 133.24 122.304 132.436 121.368 131.884C120.456 131.332 119.412 131.056 118.236 131.056C116.34 131.056 114.804 131.716 113.628 133.036C112.452 134.356 111.864 136.12 111.864 138.328C111.864 140.536 112.452 142.3 113.628 143.62C114.804 144.94 116.34 145.6 118.236 145.6C119.412 145.6 120.456 145.324 121.368 144.772C122.304 144.22 123.024 143.416 123.528 142.36H130.296C129.576 145.096 128.148 147.256 126.012 148.84C123.876 150.4 121.308 151.18 118.308 151.18C115.86 151.18 113.664 150.64 111.72 149.56C109.8 148.456 108.3 146.932 107.22 144.988C106.14 143.044 105.6 140.824 105.6 138.328ZM132.842 140.92C132.842 138.856 133.226 137.044 133.994 135.484C134.786 133.924 135.854 132.724 137.198 131.884C138.542 131.044 140.042 130.624 141.698 130.624C143.114 130.624 144.35 130.912 145.406 131.488C146.486 132.064 147.314 132.82 147.89 133.756V130.912H154.046V151H147.89V148.156C147.29 149.092 146.45 149.848 145.37 150.424C144.314 151 143.078 151.288 141.662 151.288C140.03 151.288 138.542 150.868 137.198 150.028C135.854 149.164 134.786 147.952 133.994 146.392C133.226 144.808 132.842 142.984 132.842 140.92ZM147.89 140.956C147.89 139.42 147.458 138.208 146.594 137.32C145.754 136.432 144.722 135.988 143.498 135.988C142.274 135.988 141.23 136.432 140.366 137.32C139.526 138.184 139.106 139.384 139.106 140.92C139.106 142.456 139.526 143.68 140.366 144.592C141.23 145.48 142.274 145.924 143.498 145.924C144.722 145.924 145.754 145.48 146.594 144.592C147.458 143.704 147.89 142.492 147.89 140.956ZM164.656 124.36V151H158.5V124.36H164.656ZM175.273 124.36V151H169.117V124.36H175.273ZM193.411 125.728V140.848C193.411 142.36 193.783 143.524 194.527 144.34C195.271 145.156 196.363 145.564 197.803 145.564C199.243 145.564 200.347 145.156 201.115 144.34C201.883 143.524 202.267 142.36 202.267 140.848V125.728H208.423V140.812C208.423 143.068 207.943 144.976 206.983 146.536C206.023 148.096 204.727 149.272 203.095 150.064C201.487 150.856 199.687 151.252 197.695 151.252C195.703 151.252 193.915 150.868 192.331 150.1C190.771 149.308 189.535 148.132 188.623 146.572C187.711 144.988 187.255 143.068 187.255 140.812V125.728H193.411ZM220.918 151.288C219.166 151.288 217.606 150.988 216.238 150.388C214.87 149.788 213.79 148.972 212.998 147.94C212.206 146.884 211.762 145.708 211.666 144.412H217.75C217.822 145.108 218.146 145.672 218.722 146.104C219.298 146.536 220.006 146.752 220.846 146.752C221.614 146.752 222.202 146.608 222.61 146.32C223.042 146.008 223.258 145.612 223.258 145.132C223.258 144.556 222.958 144.136 222.358 143.872C221.758 143.584 220.786 143.272 219.442 142.936C218.002 142.6 216.802 142.252 215.842 141.892C214.882 141.508 214.054 140.92 213.358 140.128C212.662 139.312 212.314 138.22 212.314 136.852C212.314 135.7 212.626 134.656 213.25 133.72C213.898 132.76 214.834 132.004 216.058 131.452C217.306 130.9 218.782 130.624 220.486 130.624C223.006 130.624 224.986 131.248 226.426 132.496C227.89 133.744 228.73 135.4 228.946 137.464H223.258C223.162 136.768 222.85 136.216 222.322 135.808C221.818 135.4 221.146 135.196 220.306 135.196C219.586 135.196 219.034 135.34 218.65 135.628C218.266 135.892 218.074 136.264 218.074 136.744C218.074 137.32 218.374 137.752 218.974 138.04C219.598 138.328 220.558 138.616 221.854 138.904C223.342 139.288 224.554 139.672 225.49 140.056C226.426 140.416 227.242 141.016 227.938 141.856C228.658 142.672 229.03 143.776 229.054 145.168C229.054 146.344 228.718 147.4 228.046 148.336C227.398 149.248 226.45 149.968 225.202 150.496C223.978 151.024 222.55 151.288 220.918 151.288Z" fill="white"/>
<path d="M66.7821 190.832V192.64H63.8061V202H61.5661V192.64H58.5901V190.832H66.7821ZM76.6565 197.376C76.6565 197.696 76.6352 197.984 76.5925 198.24H70.1125C70.1658 198.88 70.3898 199.381 70.7845 199.744C71.1792 200.107 71.6645 200.288 72.2405 200.288C73.0725 200.288 73.6645 199.931 74.0165 199.216H76.4325C76.1765 200.069 75.6858 200.773 74.9605 201.328C74.2352 201.872 73.3445 202.144 72.2885 202.144C71.4352 202.144 70.6672 201.957 69.9845 201.584C69.3125 201.2 68.7845 200.661 68.4005 199.968C68.0272 199.275 67.8405 198.475 67.8405 197.568C67.8405 196.651 68.0272 195.845 68.4005 195.152C68.7738 194.459 69.2965 193.925 69.9685 193.552C70.6405 193.179 71.4138 192.992 72.2885 192.992C73.1312 192.992 73.8832 193.173 74.5445 193.536C75.2165 193.899 75.7338 194.416 76.0965 195.088C76.4698 195.749 76.6565 196.512 76.6565 197.376ZM74.3365 196.736C74.3258 196.16 74.1178 195.701 73.7125 195.36C73.3072 195.008 72.8112 194.832 72.2245 194.832C71.6698 194.832 71.2005 195.003 70.8165 195.344C70.4432 195.675 70.2138 196.139 70.1285 196.736H74.3365ZM80.5315 190.16V202H78.2915V190.16H80.5315ZM90.9846 197.376C90.9846 197.696 90.9633 197.984 90.9206 198.24H84.4406C84.494 198.88 84.718 199.381 85.1126 199.744C85.5073 200.107 85.9926 200.288 86.5686 200.288C87.4006 200.288 87.9926 199.931 88.3446 199.216H90.7606C90.5046 200.069 90.014 200.773 89.2886 201.328C88.5633 201.872 87.6726 202.144 86.6166 202.144C85.7633 202.144 84.9953 201.957 84.3126 201.584C83.6406 201.2 83.1126 200.661 82.7286 199.968C82.3553 199.275 82.1686 198.475 82.1686 197.568C82.1686 196.651 82.3553 195.845 82.7286 195.152C83.102 194.459 83.6246 193.925 84.2966 193.552C84.9686 193.179 85.742 192.992 86.6166 192.992C87.4593 192.992 88.2113 193.173 88.8726 193.536C89.5446 193.899 90.062 194.416 90.4246 195.088C90.798 195.749 90.9846 196.512 90.9846 197.376ZM88.6646 196.736C88.654 196.16 88.446 195.701 88.0406 195.36C87.6353 195.008 87.1393 194.832 86.5526 194.832C85.998 194.832 85.5286 195.003 85.1446 195.344C84.7713 195.675 84.542 196.139 84.4566 196.736H88.6646ZM96.0916 192.992C96.753 192.992 97.3343 193.125 97.8356 193.392C98.337 193.648 98.7316 193.984 99.0196 194.4V193.136H101.276V202.064C101.276 202.885 101.11 203.616 100.78 204.256C100.449 204.907 99.953 205.419 99.2916 205.792C98.6303 206.176 97.8303 206.368 96.8916 206.368C95.633 206.368 94.5983 206.075 93.7876 205.488C92.9876 204.901 92.5343 204.101 92.4276 203.088H94.6516C94.769 203.493 95.0196 203.813 95.4036 204.048C95.7983 204.293 96.273 204.416 96.8276 204.416C97.4783 204.416 98.0063 204.219 98.4116 203.824C98.817 203.44 99.0196 202.853 99.0196 202.064V200.688C98.7316 201.104 98.3316 201.451 97.8196 201.728C97.3183 202.005 96.7423 202.144 96.0916 202.144C95.345 202.144 94.6623 201.952 94.0436 201.568C93.425 201.184 92.9343 200.645 92.5716 199.952C92.2196 199.248 92.0436 198.443 92.0436 197.536C92.0436 196.64 92.2196 195.845 92.5716 195.152C92.9343 194.459 93.4196 193.925 94.0276 193.552C94.6463 193.179 95.3343 192.992 96.0916 192.992ZM99.0196 197.568C99.0196 197.024 98.913 196.56 98.6996 196.176C98.4863 195.781 98.1983 195.483 97.8356 195.28C97.473 195.067 97.0836 194.96 96.6676 194.96C96.2516 194.96 95.8676 195.061 95.5156 195.264C95.1636 195.467 94.8756 195.765 94.6516 196.16C94.4383 196.544 94.3316 197.003 94.3316 197.536C94.3316 198.069 94.4383 198.539 94.6516 198.944C94.8756 199.339 95.1636 199.643 95.5156 199.856C95.8783 200.069 96.2623 200.176 96.6676 200.176C97.0836 200.176 97.473 200.075 97.8356 199.872C98.1983 199.659 98.4863 199.36 98.6996 198.976C98.913 198.581 99.0196 198.112 99.0196 197.568ZM105.703 194.512C105.991 194.043 106.365 193.675 106.823 193.408C107.293 193.141 107.826 193.008 108.423 193.008V195.36H107.831C107.127 195.36 106.594 195.525 106.231 195.856C105.879 196.187 105.703 196.763 105.703 197.584V202H103.463V193.136H105.703V194.512ZM109.356 197.536C109.356 196.64 109.532 195.845 109.884 195.152C110.247 194.459 110.732 193.925 111.34 193.552C111.959 193.179 112.647 192.992 113.404 192.992C114.065 192.992 114.641 193.125 115.132 193.392C115.633 193.659 116.033 193.995 116.332 194.4V193.136H118.588V202H116.332V200.704C116.044 201.12 115.644 201.467 115.132 201.744C114.631 202.011 114.049 202.144 113.388 202.144C112.641 202.144 111.959 201.952 111.34 201.568C110.732 201.184 110.247 200.645 109.884 199.952C109.532 199.248 109.356 198.443 109.356 197.536ZM116.332 197.568C116.332 197.024 116.225 196.56 116.012 196.176C115.799 195.781 115.511 195.483 115.148 195.28C114.785 195.067 114.396 194.96 113.98 194.96C113.564 194.96 113.18 195.061 112.828 195.264C112.476 195.467 112.188 195.765 111.964 196.16C111.751 196.544 111.644 197.003 111.644 197.536C111.644 198.069 111.751 198.539 111.964 198.944C112.188 199.339 112.476 199.643 112.828 199.856C113.191 200.069 113.575 200.176 113.98 200.176C114.396 200.176 114.785 200.075 115.148 199.872C115.511 199.659 115.799 199.36 116.012 198.976C116.225 198.581 116.332 198.112 116.332 197.568ZM131.784 193.008C132.872 193.008 133.747 193.344 134.408 194.016C135.08 194.677 135.416 195.605 135.416 196.8V202H133.176V197.104C133.176 196.411 133 195.883 132.648 195.52C132.296 195.147 131.816 194.96 131.208 194.96C130.6 194.96 130.115 195.147 129.752 195.52C129.4 195.883 129.224 196.411 129.224 197.104V202H126.984V197.104C126.984 196.411 126.808 195.883 126.456 195.52C126.104 195.147 125.624 194.96 125.016 194.96C124.397 194.96 123.907 195.147 123.544 195.52C123.192 195.883 123.016 196.411 123.016 197.104V202H120.776V193.136H123.016V194.208C123.304 193.835 123.672 193.541 124.12 193.328C124.579 193.115 125.08 193.008 125.624 193.008C126.317 193.008 126.936 193.157 127.48 193.456C128.024 193.744 128.445 194.16 128.744 194.704C129.032 194.192 129.448 193.781 129.992 193.472C130.547 193.163 131.144 193.008 131.784 193.008ZM138.534 202.112C138.128 202.112 137.792 201.989 137.526 201.744C137.27 201.488 137.142 201.173 137.142 200.8C137.142 200.427 137.27 200.117 137.526 199.872C137.792 199.616 138.128 199.488 138.534 199.488C138.928 199.488 139.254 199.616 139.51 199.872C139.766 200.117 139.894 200.427 139.894 200.8C139.894 201.173 139.766 201.488 139.51 201.744C139.254 201.989 138.928 202.112 138.534 202.112ZM138.534 195.488C138.128 195.488 137.792 195.365 137.526 195.12C137.27 194.864 137.142 194.549 137.142 194.176C137.142 193.803 137.27 193.493 137.526 193.248C137.792 192.992 138.128 192.864 138.534 192.864C138.928 192.864 139.254 192.992 139.51 193.248C139.766 193.493 139.894 193.803 139.894 194.176C139.894 194.549 139.766 194.864 139.51 195.12C139.254 195.365 138.928 195.488 138.534 195.488ZM153.925 197.28H150.901V200.384H148.789V197.28H145.765V195.328H148.789V192.224H150.901V195.328H153.925V197.28ZM156.786 199.472C157.81 198.619 158.626 197.909 159.234 197.344C159.842 196.768 160.349 196.171 160.754 195.552C161.16 194.933 161.362 194.325 161.362 193.728C161.362 193.184 161.234 192.757 160.978 192.448C160.722 192.139 160.328 191.984 159.794 191.984C159.261 191.984 158.85 192.165 158.562 192.528C158.274 192.88 158.125 193.365 158.114 193.984H155.938C155.981 192.704 156.36 191.733 157.074 191.072C157.8 190.411 158.717 190.08 159.826 190.08C161.042 190.08 161.976 190.405 162.626 191.056C163.277 191.696 163.602 192.544 163.602 193.6C163.602 194.432 163.378 195.227 162.93 195.984C162.482 196.741 161.97 197.403 161.394 197.968C160.818 198.523 160.066 199.195 159.138 199.984H163.858V201.84H155.954V200.176L156.786 199.472ZM165.302 193.408C165.355 192.341 165.729 191.52 166.422 190.944C167.126 190.357 168.049 190.064 169.19 190.064C169.969 190.064 170.635 190.203 171.19 190.48C171.745 190.747 172.161 191.115 172.438 191.584C172.726 192.043 172.87 192.565 172.87 193.152C172.87 193.824 172.694 194.395 172.342 194.864C172.001 195.323 171.59 195.632 171.11 195.792V195.856C171.729 196.048 172.209 196.389 172.55 196.88C172.902 197.371 173.078 198 173.078 198.768C173.078 199.408 172.929 199.979 172.63 200.48C172.342 200.981 171.91 201.376 171.334 201.664C170.769 201.941 170.086 202.08 169.286 202.08C168.081 202.08 167.099 201.776 166.342 201.168C165.585 200.56 165.185 199.664 165.142 198.48H167.318C167.339 199.003 167.515 199.424 167.846 199.744C168.187 200.053 168.651 200.208 169.238 200.208C169.782 200.208 170.198 200.059 170.486 199.76C170.785 199.451 170.934 199.056 170.934 198.576C170.934 197.936 170.731 197.477 170.326 197.2C169.921 196.923 169.291 196.784 168.438 196.784H167.974V194.944H168.438C169.953 194.944 170.71 194.437 170.71 193.424C170.71 192.965 170.571 192.608 170.294 192.352C170.027 192.096 169.638 191.968 169.126 191.968C168.625 191.968 168.235 192.107 167.958 192.384C167.691 192.651 167.537 192.992 167.494 193.408H165.302ZM174.752 199.728V197.968L179.984 190.48H182.592V197.776H184V199.728H182.592V202H180.352V199.728H174.752ZM180.496 192.88L177.216 197.776H180.496V192.88ZM187.378 195.824C186.311 195.269 185.778 194.411 185.778 193.248C185.778 192.672 185.922 192.149 186.21 191.68C186.509 191.2 186.951 190.821 187.538 190.544C188.135 190.256 188.861 190.112 189.714 190.112C190.567 190.112 191.287 190.256 191.874 190.544C192.471 190.821 192.914 191.2 193.202 191.68C193.501 192.149 193.65 192.672 193.65 193.248C193.65 193.835 193.506 194.352 193.218 194.8C192.93 195.237 192.546 195.579 192.066 195.824C192.653 196.08 193.111 196.453 193.442 196.944C193.773 197.435 193.938 198.016 193.938 198.688C193.938 199.413 193.751 200.048 193.378 200.592C193.015 201.125 192.514 201.536 191.874 201.824C191.234 202.112 190.514 202.256 189.714 202.256C188.914 202.256 188.194 202.112 187.554 201.824C186.925 201.536 186.423 201.125 186.05 200.592C185.687 200.048 185.506 199.413 185.506 198.688C185.506 198.016 185.671 197.435 186.002 196.944C186.333 196.443 186.791 196.069 187.378 195.824ZM191.474 193.568C191.474 193.045 191.314 192.64 190.994 192.352C190.685 192.064 190.258 191.92 189.714 191.92C189.181 191.92 188.754 192.064 188.434 192.352C188.125 192.64 187.97 193.051 187.97 193.584C187.97 194.064 188.13 194.448 188.45 194.736C188.781 195.024 189.202 195.168 189.714 195.168C190.226 195.168 190.647 195.024 190.978 194.736C191.309 194.437 191.474 194.048 191.474 193.568ZM189.714 196.8C189.106 196.8 188.61 196.955 188.226 197.264C187.853 197.573 187.666 198.016 187.666 198.592C187.666 199.125 187.847 199.563 188.21 199.904C188.583 200.235 189.085 200.4 189.714 200.4C190.343 200.4 190.839 200.229 191.202 199.888C191.565 199.547 191.746 199.115 191.746 198.592C191.746 198.027 191.559 197.589 191.186 197.28C190.813 196.96 190.322 196.8 189.714 196.8ZM195.435 192.4V190.336H199.291V202H196.987V192.4H195.435ZM201.408 199.728V197.968L206.64 190.48H209.248V197.776H210.656V199.728H209.248V202H207.008V199.728H201.408ZM207.152 192.88L203.872 197.776H207.152V192.88ZM214.034 195.824C212.968 195.269 212.434 194.411 212.434 193.248C212.434 192.672 212.578 192.149 212.866 191.68C213.165 191.2 213.608 190.821 214.194 190.544C214.792 190.256 215.517 190.112 216.37 190.112C217.224 190.112 217.944 190.256 218.53 190.544C219.128 190.821 219.57 191.2 219.858 191.68C220.157 192.149 220.306 192.672 220.306 193.248C220.306 193.835 220.162 194.352 219.874 194.8C219.586 195.237 219.202 195.579 218.722 195.824C219.309 196.08 219.768 196.453 220.098 196.944C220.429 197.435 220.594 198.016 220.594 198.688C220.594 199.413 220.408 200.048 220.034 200.592C219.672 201.125 219.17 201.536 218.53 201.824C217.89 202.112 217.17 202.256 216.37 202.256C215.57 202.256 214.85 202.112 214.21 201.824C213.581 201.536 213.08 201.125 212.706 200.592C212.344 200.048 212.162 199.413 212.162 198.688C212.162 198.016 212.328 197.435 212.658 196.944C212.989 196.443 213.448 196.069 214.034 195.824ZM218.13 193.568C218.13 193.045 217.97 192.64 217.65 192.352C217.341 192.064 216.914 191.92 216.37 191.92C215.837 191.92 215.41 192.064 215.09 192.352C214.781 192.64 214.626 193.051 214.626 193.584C214.626 194.064 214.786 194.448 215.106 194.736C215.437 195.024 215.858 195.168 216.37 195.168C216.882 195.168 217.304 195.024 217.634 194.736C217.965 194.437 218.13 194.048 218.13 193.568ZM216.37 196.8C215.762 196.8 215.266 196.955 214.882 197.264C214.509 197.573 214.322 198.016 214.322 198.592C214.322 199.125 214.504 199.563 214.866 199.904C215.24 200.235 215.741 200.4 216.37 200.4C217 200.4 217.496 200.229 217.858 199.888C218.221 199.547 218.402 199.115 218.402 198.592C218.402 198.027 218.216 197.589 217.842 197.28C217.469 196.96 216.978 196.8 216.37 196.8ZM229.788 192.032L225.532 202H223.26L227.548 192.288H222.076V190.368H229.788V192.032ZM230.857 192.4V190.336H234.713V202H232.409V192.4H230.857ZM236.926 196.016C236.926 194.171 237.257 192.725 237.918 191.68C238.59 190.635 239.699 190.112 241.246 190.112C242.793 190.112 243.897 190.635 244.558 191.68C245.23 192.725 245.566 194.171 245.566 196.016C245.566 197.872 245.23 199.328 244.558 200.384C243.897 201.44 242.793 201.968 241.246 201.968C239.699 201.968 238.59 201.44 237.918 200.384C237.257 199.328 236.926 197.872 236.926 196.016ZM243.358 196.016C243.358 195.227 243.305 194.565 243.198 194.032C243.102 193.488 242.899 193.045 242.59 192.704C242.291 192.363 241.843 192.192 241.246 192.192C240.649 192.192 240.195 192.363 239.886 192.704C239.587 193.045 239.385 193.488 239.278 194.032C239.182 194.565 239.134 195.227 239.134 196.016C239.134 196.827 239.182 197.509 239.278 198.064C239.374 198.608 239.577 199.051 239.886 199.392C240.195 199.723 240.649 199.888 241.246 199.888C241.843 199.888 242.297 199.723 242.606 199.392C242.915 199.051 243.118 198.608 243.214 198.064C243.31 197.509 243.358 196.827 243.358 196.016ZM247.27 196.016C247.27 194.171 247.601 192.725 248.262 191.68C248.934 190.635 250.043 190.112 251.59 190.112C253.137 190.112 254.241 190.635 254.902 191.68C255.574 192.725 255.91 194.171 255.91 196.016C255.91 197.872 255.574 199.328 254.902 200.384C254.241 201.44 253.137 201.968 251.59 201.968C250.043 201.968 248.934 201.44 248.262 200.384C247.601 199.328 247.27 197.872 247.27 196.016ZM253.702 196.016C253.702 195.227 253.649 194.565 253.542 194.032C253.446 193.488 253.243 193.045 252.934 192.704C252.635 192.363 252.187 192.192 251.59 192.192C250.993 192.192 250.539 192.363 250.23 192.704C249.931 193.045 249.729 193.488 249.622 194.032C249.526 194.565 249.478 195.227 249.478 196.016C249.478 196.827 249.526 197.509 249.622 198.064C249.718 198.608 249.921 199.051 250.23 199.392C250.539 199.723 250.993 199.888 251.59 199.888C252.187 199.888 252.641 199.723 252.95 199.392C253.259 199.051 253.462 198.608 253.558 198.064C253.654 197.509 253.702 196.827 253.702 196.016ZM257.518 199.728V197.968L262.75 190.48H265.358V197.776H266.766V199.728H265.358V202H263.118V199.728H257.518ZM263.262 192.88L259.982 197.776H263.262V192.88ZM268.224 193.408C268.277 192.341 268.65 191.52 269.344 190.944C270.048 190.357 270.97 190.064 272.112 190.064C272.89 190.064 273.557 190.203 274.112 190.48C274.666 190.747 275.082 191.115 275.36 191.584C275.648 192.043 275.792 192.565 275.792 193.152C275.792 193.824 275.616 194.395 275.264 194.864C274.922 195.323 274.512 195.632 274.032 195.792V195.856C274.65 196.048 275.13 196.389 275.472 196.88C275.824 197.371 276 198 276 198.768C276 199.408 275.85 199.979 275.552 200.48C275.264 200.981 274.832 201.376 274.256 201.664C273.69 201.941 273.008 202.08 272.208 202.08C271.002 202.08 270.021 201.776 269.264 201.168C268.506 200.56 268.106 199.664 268.064 198.48H270.24C270.261 199.003 270.437 199.424 270.768 199.744C271.109 200.053 271.573 200.208 272.16 200.208C272.704 200.208 273.12 200.059 273.408 199.76C273.706 199.451 273.856 199.056 273.856 198.576C273.856 197.936 273.653 197.477 273.248 197.2C272.842 196.923 272.213 196.784 271.36 196.784H270.896V194.944H271.36C272.874 194.944 273.632 194.437 273.632 193.424C273.632 192.965 273.493 192.608 273.216 192.352C272.949 192.096 272.56 191.968 272.048 191.968C271.546 191.968 271.157 192.107 270.88 192.384C270.613 192.651 270.458 192.992 270.416 193.408H268.224Z" fill="white"/>
</svg>
