<svg width="43" height="11" viewBox="0 0 43 11" fill="none" xmlns="http://www.w3.org/2000/svg">
<path d="M1.232 10.4995V6.90151H0.14V6.00551H1.232V4.85751H0.14V3.96151H1.232V0.503511H2.688L4.018 3.96151H5.67V0.503511H6.776V3.96151H7.868V4.85751H6.776V6.00551H7.868V6.90151H6.776V10.4995H5.306L3.976 6.90151H2.324V10.4995H1.232ZM2.324 6.00551H3.64L3.22 4.85751H2.296L2.324 6.00551ZM5.67 8.52551H5.726L5.684 6.90151H5.096L5.67 8.52551ZM2.296 3.96151H2.884L2.296 2.22551H2.24L2.296 3.96151ZM4.76 6.00551H5.698L5.67 4.85751H4.34L4.76 6.00551ZM18.1347 1.55351L14.3967 10.4995H13.0527L16.8467 1.67951H11.6667V0.573511H18.1347V1.55351ZM19.5467 2.95351C19.5467 2.46818 19.6774 2.02484 19.9387 1.62351C20.2001 1.22218 20.5874 0.904845 21.1007 0.671511C21.6141 0.438178 22.2254 0.321511 22.9347 0.321511C23.6441 0.321511 24.2507 0.438178 24.7547 0.671511C25.2681 0.904845 25.6554 1.22218 25.9167 1.62351C26.1781 2.02484 26.3087 2.46818 26.3087 2.95351C26.3087 3.50418 26.1594 3.98018 25.8607 4.38151C25.5621 4.78284 25.1094 5.06751 24.5027 5.23551C25.1561 5.41284 25.6647 5.72084 26.0287 6.15951C26.3927 6.59818 26.5747 7.13951 26.5747 7.78351C26.5747 8.71684 26.2434 9.44951 25.5807 9.98151C24.9181 10.5135 24.0361 10.7795 22.9347 10.7795C21.8334 10.7795 20.9514 10.5135 20.2887 9.98151C19.6261 9.44951 19.2947 8.71684 19.2947 7.78351C19.2947 7.13951 19.4721 6.59818 19.8267 6.15951C20.1907 5.72084 20.6994 5.41284 21.3527 5.23551C20.7461 5.06751 20.2934 4.78284 19.9947 4.38151C19.6961 3.98018 19.5467 3.50418 19.5467 2.95351ZM20.8067 3.13551C20.8067 3.69551 20.9981 4.12951 21.3807 4.43751C21.7634 4.73618 22.2814 4.88551 22.9347 4.88551C23.5881 4.88551 24.1014 4.73618 24.4747 4.43751C24.8574 4.12951 25.0487 3.69551 25.0487 3.13551C25.0487 2.57551 24.8574 2.14618 24.4747 1.84751C24.0921 1.53951 23.5787 1.38551 22.9347 1.38551C22.2907 1.38551 21.7727 1.53951 21.3807 1.84751C20.9981 2.14618 20.8067 2.57551 20.8067 3.13551ZM20.5407 7.71351C20.5407 8.34818 20.7554 8.84284 21.1847 9.19751C21.6141 9.54285 22.1974 9.71551 22.9347 9.71551C23.6627 9.71551 24.2414 9.53818 24.6707 9.18351C25.1001 8.82885 25.3147 8.33884 25.3147 7.71351C25.3147 7.07884 25.0907 6.59818 24.6427 6.27151C24.1947 5.94484 23.6254 5.78151 22.9347 5.78151C22.2347 5.78151 21.6607 5.94484 21.2127 6.27151C20.7647 6.59818 20.5407 7.07884 20.5407 7.71351ZM27.8907 9.51951C29.4774 8.45551 30.7467 7.40084 31.6987 6.35551C32.6507 5.30084 33.1267 4.32084 33.1267 3.41551C33.1267 2.85551 32.9821 2.40751 32.6927 2.07151C32.4127 1.72618 31.9554 1.55351 31.3207 1.55351C30.6674 1.55351 30.1727 1.76351 29.8367 2.18351C29.5007 2.59418 29.3141 3.16351 29.2767 3.89151H28.0167C28.0821 2.79018 28.4227 1.94551 29.0387 1.35751C29.6547 0.760178 30.4481 0.461512 31.4187 0.461512C32.3427 0.461512 33.0754 0.708845 33.6167 1.20351C34.1581 1.69818 34.4287 2.39818 34.4287 3.30351C34.4287 4.05018 34.1861 4.81084 33.7007 5.58551C33.2247 6.35084 32.6227 7.06484 31.8947 7.72751C31.1761 8.38084 30.4341 8.93618 29.6687 9.39351H34.6807V10.4435H27.8907V9.51951ZM37.4861 7.72751C37.5701 8.31551 37.7754 8.76818 38.1021 9.08551C38.4288 9.40285 38.8768 9.56151 39.4461 9.56151C40.2301 9.56151 40.8228 9.25818 41.2241 8.65151C41.6254 8.04484 41.8261 7.08351 41.8261 5.76751C41.8261 5.51551 41.8214 5.32418 41.8121 5.19351C41.6814 5.75351 41.3641 6.20151 40.8601 6.53751C40.3561 6.87351 39.7634 7.04151 39.0821 7.04151C38.1021 7.04151 37.3321 6.74751 36.7721 6.15951C36.2121 5.57151 35.9321 4.75018 35.9321 3.69551C35.9321 3.07951 36.0534 2.51951 36.2961 2.01551C36.5388 1.51151 36.9074 1.11484 37.4021 0.825511C37.9061 0.526844 38.5268 0.377511 39.2641 0.377511C40.6828 0.377511 41.6534 0.816178 42.1761 1.69351C42.7081 2.56151 42.9741 3.75618 42.9741 5.27751C42.9741 7.01351 42.7034 8.33884 42.1621 9.25351C41.6208 10.1588 40.7154 10.6115 39.4461 10.6115C38.5034 10.6115 37.7614 10.3455 37.2201 9.81351C36.6881 9.27218 36.3754 8.57684 36.2821 7.72751H37.4861ZM41.6861 3.89151C41.6861 3.21951 41.4854 2.65018 41.0841 2.18351C40.6921 1.71684 40.0994 1.48351 39.3061 1.48351C38.6528 1.48351 38.1301 1.67951 37.7381 2.07151C37.3461 2.46351 37.1501 3.00951 37.1501 3.70951C37.1501 4.45618 37.3461 5.03018 37.7381 5.43151C38.1301 5.83284 38.6668 6.03351 39.3481 6.03351C39.7401 6.03351 40.1134 5.95418 40.4681 5.79551C40.8321 5.63684 41.1261 5.39418 41.3501 5.06751C41.5741 4.74084 41.6861 4.34884 41.6861 3.89151Z" fill="#00902F"/>
</svg>
