<svg width="29" height="30" viewBox="0 0 29 30" fill="none" xmlns="http://www.w3.org/2000/svg">
<path fill-rule="evenodd" clip-rule="evenodd" d="M22.3035 10.4333C22.001 10.6708 21.6085 10.8608 21.1351 11.015C21.2257 11.9408 21.1215 12.8753 20.8293 13.7584C20.537 14.6415 20.0632 15.4537 19.4383 16.1427C18.8134 16.8318 18.0512 17.3824 17.2007 17.7592C16.3503 18.136 15.4303 18.3307 14.5001 18.3307C13.5699 18.3307 12.65 18.136 11.7995 17.7592C10.9491 17.3824 10.1869 16.8318 9.56196 16.1427C8.93704 15.4537 8.46323 14.6415 8.171 13.7584C7.87877 12.8753 7.77458 11.9408 7.86514 11.015C7.39181 10.8608 6.99931 10.6708 6.69764 10.4333C6.30597 10.125 6.04347 9.71333 6.01264 9.21833C5.98347 8.75917 6.16514 8.36917 6.34681 8.09417C6.52614 7.83369 6.73909 7.59804 6.98014 7.39333C7.09681 7.29083 7.21181 7.2 7.31847 7.12083C7.28681 6.95 7.25181 6.74333 7.21681 6.50417C7.06918 5.45373 6.99677 4.39409 7.00014 3.33333C7.00014 3.07167 7.11181 2.87667 7.16347 2.79417C7.22847 2.69 7.30514 2.60083 7.37514 2.52917C7.51431 2.38333 7.69431 2.235 7.89181 2.0925C8.29181 1.8025 8.84181 1.47667 9.49514 1.17167C10.7976 0.563333 12.5868 0 14.5001 0C16.4143 0 18.2026 0.564167 19.5051 1.17167C20.0668 1.42857 20.6035 1.73682 21.1085 2.0925C21.306 2.235 21.486 2.38417 21.6251 2.52917C21.6951 2.60083 21.7718 2.69 21.8368 2.79417C21.8885 2.87667 22.0001 3.07167 22.0001 3.33333C22.0001 4.66833 21.8918 5.75 21.7835 6.50417C21.7485 6.74333 21.7135 6.95 21.6818 7.12083C21.7885 7.2 21.9043 7.29083 22.021 7.39333C22.2293 7.57583 22.4676 7.81333 22.6535 8.09417C22.836 8.36917 23.0168 8.75917 22.9885 9.21917C22.9576 9.71333 22.6951 10.125 22.3035 10.4333ZM8.66847 3.59833C8.68097 4.72167 8.77431 5.63 8.86681 6.265C8.88847 6.415 8.91014 6.54833 8.93014 6.66667H20.0701C20.091 6.54833 20.1118 6.41417 20.1335 6.265C20.2251 5.63 20.3193 4.72167 20.3318 3.59833C20.2669 3.5435 20.1999 3.49124 20.131 3.44167C19.8301 3.22417 19.3735 2.95 18.8001 2.6825C17.6476 2.14417 16.1035 1.66667 14.5001 1.66667C12.8968 1.66667 11.3526 2.14417 10.2001 2.6825C9.62681 2.95 9.17014 3.22417 8.87014 3.44083C8.80085 3.49093 8.73358 3.54375 8.66847 3.59917V3.59833ZM8.49014 8.33333L8.48764 8.335C8.34381 8.43084 8.20605 8.53549 8.07514 8.64833C7.92681 8.77833 7.80847 8.905 7.73681 9.015C7.71975 9.03974 7.70444 9.06564 7.69097 9.0925C7.70277 9.10327 7.71501 9.11355 7.72764 9.12333C7.85264 9.22167 8.12097 9.36583 8.64431 9.50833C8.74764 9.53667 8.85847 9.56333 8.97681 9.59L8.98431 9.59167C9.40264 9.68417 9.91764 9.76667 10.5451 9.83167C11.4343 9.92417 12.5535 9.985 13.9518 9.99833L14.5001 10C17.1893 10 18.9285 9.8325 20.0168 9.59167L20.0235 9.59C20.1426 9.56333 20.2535 9.53667 20.3568 9.50833C20.8793 9.36667 21.1485 9.22167 21.2726 9.12333C21.2853 9.11355 21.2975 9.10327 21.3093 9.0925C21.2961 9.06566 21.2811 9.03977 21.2643 9.015C21.1674 8.87879 21.0534 8.75557 20.9251 8.64833C20.7945 8.53549 20.657 8.43085 20.5135 8.335L20.5101 8.33333H8.49014ZM14.2735 11.6667C16.4751 11.6667 18.1818 11.55 19.4901 11.3467C19.5331 12.0261 19.437 12.7072 19.2074 13.3481C18.9779 13.989 18.62 14.5764 18.1555 15.0741C17.691 15.5718 17.1297 15.9694 16.5061 16.2425C15.8825 16.5156 15.2097 16.6585 14.5289 16.6624C13.8481 16.6664 13.1737 16.5312 12.547 16.2653C11.9203 15.9994 11.3545 15.6083 10.8843 15.1159C10.4141 14.6236 10.0494 14.0405 9.81253 13.4022C9.57566 12.764 9.47163 12.084 9.50681 11.4042C10.726 11.5725 12.2885 11.6667 14.2735 11.6667ZM7.89847 27.3975C7.85505 27.7076 7.83333 28.0203 7.83347 28.3333V29.1667C7.83357 29.3499 7.77329 29.528 7.66197 29.6735C7.55065 29.819 7.39449 29.9237 7.21765 29.9715C7.04081 30.0194 6.85314 30.0076 6.68367 29.938C6.5142 29.8684 6.37238 29.7449 6.28014 29.5867C5.7185 29.8913 5.06129 29.9686 4.44431 29.8025L2.83431 29.3708C2.1941 29.199 1.64836 28.7799 1.31706 28.2058C0.985769 27.6316 0.896052 26.9494 1.06764 26.3092L1.7143 23.8942C1.88597 23.2538 2.30496 22.7079 2.87912 22.3764C3.45328 22.0449 4.13559 21.9551 4.77597 22.1267L6.38597 22.5575C6.94597 22.7075 7.41097 23.0367 7.73431 23.4667C8.50574 22.3929 9.5219 21.5183 10.6986 20.9155C11.8754 20.3126 13.1788 19.9988 14.501 20C15.8224 19.9991 17.1251 20.313 18.3012 20.9155C19.4773 21.518 20.493 22.392 21.2643 23.465C21.5993 23.0208 22.0734 22.7016 22.611 22.5583L24.221 22.1275C24.8612 21.9559 25.5435 22.0456 26.1176 22.3769C26.6917 22.7082 27.1108 23.254 27.2826 23.8942L27.9301 26.31C28.0151 26.6271 28.0367 26.9579 27.9938 27.2834C27.9509 27.6089 27.8443 27.9228 27.6801 28.2071C27.5159 28.4914 27.2973 28.7406 27.0368 28.9404C26.7763 29.1402 26.479 29.2868 26.1618 29.3717L24.5526 29.8025C23.9368 29.9687 23.2806 29.8923 22.7193 29.5892C22.6268 29.7472 22.4848 29.8704 22.3152 29.9396C22.1457 30.0089 21.958 30.0203 21.7813 29.9723C21.6046 29.9242 21.4486 29.8192 21.3376 29.6736C21.2265 29.528 21.1665 29.3498 21.1668 29.1667V28.3333C21.167 28.0203 21.1452 27.7076 21.1018 27.3975L16.7651 28.56C16.5638 28.9909 16.2438 29.3554 15.8426 29.6108C15.4414 29.8662 14.9757 30.0018 14.5001 30.0018C14.0246 30.0018 13.5588 29.8662 13.1577 29.6108C12.7565 29.3554 12.4364 28.9909 12.2351 28.56L7.89847 27.3975ZM12.1001 26.7975C12.212 26.4176 12.4123 26.0696 12.6846 25.7821C12.9569 25.4945 13.2935 25.2756 13.6668 25.1433V21.7183C12.4979 21.8661 11.389 22.3206 10.4527 23.0358C9.51639 23.7509 8.78608 24.7012 8.33597 25.79L12.1001 26.7975ZM20.6643 25.7892C20.2141 24.7005 19.4837 23.7504 18.5474 23.0354C17.6111 22.3204 16.5023 21.866 15.3335 21.7183V25.1425C16.0868 25.4092 16.6751 26.0258 16.9001 26.7983L20.6643 25.79V25.7892ZM22.4535 25.1892C22.4251 25.0835 22.4179 24.9732 22.4321 24.8647C22.4464 24.7562 22.4819 24.6515 22.5366 24.5567C22.5913 24.4619 22.6642 24.3788 22.751 24.3122C22.8378 24.2455 22.9369 24.1967 23.0426 24.1683L24.6526 23.7367C24.866 23.6797 25.0933 23.7097 25.2846 23.8202C25.4758 23.9306 25.6154 24.1125 25.6726 24.3258L26.3201 26.7408C26.3485 26.8465 26.3558 26.9568 26.3415 27.0653C26.3272 27.1739 26.2917 27.2785 26.237 27.3733C26.1823 27.4681 26.1095 27.5512 26.0226 27.6178C25.9358 27.6845 25.8367 27.7333 25.731 27.7617L24.121 28.1933C24.0152 28.2217 23.9049 28.2289 23.7963 28.2146C23.6878 28.2003 23.5831 28.1647 23.4883 28.1099C23.3935 28.0551 23.3104 27.9822 23.2438 27.8952C23.1772 27.8083 23.1284 27.7091 23.1001 27.6033L22.4535 25.1892ZM4.34514 23.7367C4.23937 23.7082 4.12902 23.7008 4.02041 23.715C3.9118 23.7292 3.80705 23.7647 3.71216 23.8194C3.61727 23.8742 3.5341 23.9471 3.4674 24.0339C3.40071 24.1208 3.3518 24.22 3.32347 24.3258L2.67681 26.74C2.64845 26.8457 2.64119 26.956 2.65546 27.0645C2.66972 27.173 2.70522 27.2777 2.75993 27.3725C2.81464 27.4673 2.88749 27.5503 2.97432 27.617C3.06115 27.6836 3.16025 27.7325 3.26597 27.7608L4.87597 28.1925C4.98169 28.2209 5.09195 28.2281 5.20047 28.2138C5.30899 28.1996 5.41363 28.1641 5.50843 28.1094C5.60323 28.0547 5.68632 27.9818 5.75295 27.895C5.81959 27.8082 5.86847 27.7091 5.89681 27.6033L6.54347 25.1883C6.57195 25.0826 6.5793 24.9722 6.5651 24.8636C6.5509 24.755 6.51542 24.6502 6.4607 24.5554C6.40598 24.4605 6.33309 24.3773 6.2462 24.3106C6.15931 24.2439 6.06012 24.195 5.95431 24.1667L4.34431 23.7358L4.34514 23.7367ZM15.3335 27.5C15.3335 27.721 15.2457 27.933 15.0894 28.0893C14.9331 28.2455 14.7212 28.3333 14.5001 28.3333C14.2791 28.3333 14.0672 28.2455 13.9109 28.0893C13.7546 27.933 13.6668 27.721 13.6668 27.5C13.6668 27.279 13.7546 27.067 13.9109 26.9107C14.0672 26.7545 14.2791 26.6667 14.5001 26.6667C14.7212 26.6667 14.9331 26.7545 15.0894 26.9107C15.2457 27.067 15.3335 27.279 15.3335 27.5Z" fill="#00902F"/>
</svg>
