<svg width="333" height="261" viewBox="0 0 333 261" fill="none" xmlns="http://www.w3.org/2000/svg">
<rect width="333" height="261" fill="#151515" fill-opacity="0.9"/>
<path d="M176.5 67C176.5 65.9 175.6 65 174.5 65H158.5C157.4 65 156.5 65.9 156.5 67V79C156.5 80.1 157.4 81 158.5 81H174.5C175.6 81 176.5 80.1 176.5 79V67ZM174.5 67L166.5 72L158.5 67H174.5ZM174.5 79H158.5V69L166.5 74L174.5 69V79Z" fill="white"/>
<rect x="147.5" y="54" width="38" height="38" rx="19" stroke="white" stroke-width="2"/>
<path d="M96.7181 130.66V135.772H104.962V140.524H96.7181V146.068H106.042V151H90.5621V125.728H106.042V130.66H96.7181ZM135.671 130.696C138.167 130.696 140.147 131.452 141.611 132.964C143.099 134.476 143.843 136.576 143.843 139.264V151H137.723V140.092C137.723 138.796 137.375 137.8 136.679 137.104C136.007 136.384 135.071 136.024 133.871 136.024C132.671 136.024 131.723 136.384 131.027 137.104C130.355 137.8 130.019 138.796 130.019 140.092V151H123.899V140.092C123.899 138.796 123.551 137.8 122.855 137.104C122.183 136.384 121.247 136.024 120.047 136.024C118.847 136.024 117.899 136.384 117.203 137.104C116.531 137.8 116.195 138.796 116.195 140.092V151H110.039V130.912H116.195V133.432C116.819 132.592 117.635 131.932 118.643 131.452C119.651 130.948 120.791 130.696 122.063 130.696C123.575 130.696 124.919 131.02 126.095 131.668C127.295 132.316 128.231 133.24 128.903 134.44C129.599 133.336 130.547 132.436 131.747 131.74C132.947 131.044 134.255 130.696 135.671 130.696ZM146.924 140.92C146.924 138.856 147.308 137.044 148.076 135.484C148.868 133.924 149.936 132.724 151.28 131.884C152.624 131.044 154.124 130.624 155.78 130.624C157.196 130.624 158.432 130.912 159.488 131.488C160.568 132.064 161.396 132.82 161.972 133.756V130.912H168.128V151H161.972V148.156C161.372 149.092 160.532 149.848 159.452 150.424C158.396 151 157.16 151.288 155.744 151.288C154.112 151.288 152.624 150.868 151.28 150.028C149.936 149.164 148.868 147.952 148.076 146.392C147.308 144.808 146.924 142.984 146.924 140.92ZM161.972 140.956C161.972 139.42 161.54 138.208 160.676 137.32C159.836 136.432 158.804 135.988 157.58 135.988C156.356 135.988 155.312 136.432 154.448 137.32C153.608 138.184 153.188 139.384 153.188 140.92C153.188 142.456 153.608 143.68 154.448 144.592C155.312 145.48 156.356 145.924 157.58 145.924C158.804 145.924 159.836 145.48 160.676 144.592C161.54 143.704 161.972 142.492 161.972 140.956ZM175.678 128.824C174.598 128.824 173.71 128.512 173.014 127.888C172.342 127.24 172.006 126.448 172.006 125.512C172.006 124.552 172.342 123.76 173.014 123.136C173.71 122.488 174.598 122.164 175.678 122.164C176.734 122.164 177.598 122.488 178.27 123.136C178.966 123.76 179.314 124.552 179.314 125.512C179.314 126.448 178.966 127.24 178.27 127.888C177.598 128.512 176.734 128.824 175.678 128.824ZM178.738 130.912V151H172.582V130.912H178.738ZM189.355 124.36V151H183.199V124.36H189.355ZM207.493 125.728V140.848C207.493 142.36 207.865 143.524 208.609 144.34C209.353 145.156 210.445 145.564 211.885 145.564C213.325 145.564 214.429 145.156 215.197 144.34C215.965 143.524 216.349 142.36 216.349 140.848V125.728H222.505V140.812C222.505 143.068 222.025 144.976 221.065 146.536C220.105 148.096 218.809 149.272 217.177 150.064C215.569 150.856 213.769 151.252 211.777 151.252C209.785 151.252 207.997 150.868 206.413 150.1C204.853 149.308 203.617 148.132 202.705 146.572C201.793 144.988 201.337 143.068 201.337 140.812V125.728H207.493ZM235 151.288C233.248 151.288 231.688 150.988 230.32 150.388C228.952 149.788 227.872 148.972 227.08 147.94C226.288 146.884 225.844 145.708 225.748 144.412H231.832C231.904 145.108 232.228 145.672 232.804 146.104C233.38 146.536 234.088 146.752 234.928 146.752C235.696 146.752 236.284 146.608 236.692 146.32C237.124 146.008 237.34 145.612 237.34 145.132C237.34 144.556 237.04 144.136 236.44 143.872C235.84 143.584 234.868 143.272 233.524 142.936C232.084 142.6 230.884 142.252 229.924 141.892C228.964 141.508 228.136 140.92 227.44 140.128C226.744 139.312 226.396 138.22 226.396 136.852C226.396 135.7 226.708 134.656 227.332 133.72C227.98 132.76 228.916 132.004 230.14 131.452C231.388 130.9 232.864 130.624 234.568 130.624C237.088 130.624 239.068 131.248 240.508 132.496C241.972 133.744 242.812 135.4 243.028 137.464H237.34C237.244 136.768 236.932 136.216 236.404 135.808C235.9 135.4 235.228 135.196 234.388 135.196C233.668 135.196 233.116 135.34 232.732 135.628C232.348 135.892 232.156 136.264 232.156 136.744C232.156 137.32 232.456 137.752 233.056 138.04C233.68 138.328 234.64 138.616 235.936 138.904C237.424 139.288 238.636 139.672 239.572 140.056C240.508 140.416 241.324 141.016 242.02 141.856C242.74 142.672 243.112 143.776 243.136 145.168C243.136 146.344 242.8 147.4 242.128 148.336C241.48 149.248 240.532 149.968 239.284 150.496C238.06 151.024 236.632 151.288 235 151.288Z" fill="white"/>
<path d="M62.5393 192.64V195.44H66.2993V197.216H62.5393V200.176H66.7793V202H60.2993V190.816H66.7793V192.64H62.5393ZM79.8229 193.008C80.9109 193.008 81.7856 193.344 82.4469 194.016C83.1189 194.677 83.4549 195.605 83.4549 196.8V202H81.2149V197.104C81.2149 196.411 81.0389 195.883 80.6869 195.52C80.3349 195.147 79.8549 194.96 79.2469 194.96C78.6389 194.96 78.1536 195.147 77.7909 195.52C77.4389 195.883 77.2629 196.411 77.2629 197.104V202H75.0229V197.104C75.0229 196.411 74.8469 195.883 74.4949 195.52C74.1429 195.147 73.6629 194.96 73.0549 194.96C72.4363 194.96 71.9456 195.147 71.5829 195.52C71.2309 195.883 71.0549 196.411 71.0549 197.104V202H68.8149V193.136H71.0549V194.208C71.3429 193.835 71.7109 193.541 72.1589 193.328C72.6176 193.115 73.1189 193.008 73.6629 193.008C74.3563 193.008 74.9749 193.157 75.5189 193.456C76.0629 193.744 76.4843 194.16 76.7829 194.704C77.0709 194.192 77.4869 193.781 78.0309 193.472C78.5856 193.163 79.1829 193.008 79.8229 193.008ZM85.0046 197.536C85.0046 196.64 85.1806 195.845 85.5326 195.152C85.8952 194.459 86.3806 193.925 86.9886 193.552C87.6072 193.179 88.2952 192.992 89.0526 192.992C89.7139 192.992 90.2899 193.125 90.7806 193.392C91.2819 193.659 91.6819 193.995 91.9806 194.4V193.136H94.2366V202H91.9806V200.704C91.6926 201.12 91.2926 201.467 90.7806 201.744C90.2792 202.011 89.6979 202.144 89.0366 202.144C88.2899 202.144 87.6072 201.952 86.9886 201.568C86.3806 201.184 85.8952 200.645 85.5326 199.952C85.1806 199.248 85.0046 198.443 85.0046 197.536ZM91.9806 197.568C91.9806 197.024 91.8739 196.56 91.6606 196.176C91.4472 195.781 91.1592 195.483 90.7966 195.28C90.4339 195.067 90.0446 194.96 89.6286 194.96C89.2126 194.96 88.8286 195.061 88.4766 195.264C88.1246 195.467 87.8366 195.765 87.6126 196.16C87.3992 196.544 87.2926 197.003 87.2926 197.536C87.2926 198.069 87.3992 198.539 87.6126 198.944C87.8366 199.339 88.1246 199.643 88.4766 199.856C88.8392 200.069 89.2232 200.176 89.6286 200.176C90.0446 200.176 90.4339 200.075 90.7966 199.872C91.1592 199.659 91.4472 199.36 91.6606 198.976C91.8739 198.581 91.9806 198.112 91.9806 197.568ZM97.5603 192.08C97.1656 192.08 96.835 191.957 96.5683 191.712C96.3123 191.456 96.1843 191.141 96.1843 190.768C96.1843 190.395 96.3123 190.085 96.5683 189.84C96.835 189.584 97.1656 189.456 97.5603 189.456C97.955 189.456 98.2803 189.584 98.5363 189.84C98.803 190.085 98.9363 190.395 98.9363 190.768C98.9363 191.141 98.803 191.456 98.5363 191.712C98.2803 191.957 97.955 192.08 97.5603 192.08ZM98.6643 193.136V202H96.4243V193.136H98.6643ZM103.117 190.16V202H100.877V190.16H103.117ZM106.323 202.112C105.917 202.112 105.581 201.989 105.315 201.744C105.059 201.488 104.931 201.173 104.931 200.8C104.931 200.427 105.059 200.117 105.315 199.872C105.581 199.616 105.917 199.488 106.323 199.488C106.717 199.488 107.043 199.616 107.299 199.872C107.555 200.117 107.683 200.427 107.683 200.8C107.683 201.173 107.555 201.488 107.299 201.744C107.043 201.989 106.717 202.112 106.323 202.112ZM106.323 195.488C105.917 195.488 105.581 195.365 105.315 195.12C105.059 194.864 104.931 194.549 104.931 194.176C104.931 193.803 105.059 193.493 105.315 193.248C105.581 192.992 105.917 192.864 106.323 192.864C106.717 192.864 107.043 192.992 107.299 193.248C107.555 193.493 107.683 193.803 107.683 194.176C107.683 194.549 107.555 194.864 107.299 195.12C107.043 195.365 106.717 195.488 106.323 195.488ZM114.482 192.08C114.088 192.08 113.757 191.957 113.49 191.712C113.234 191.456 113.106 191.141 113.106 190.768C113.106 190.395 113.234 190.085 113.49 189.84C113.757 189.584 114.088 189.456 114.482 189.456C114.877 189.456 115.202 189.584 115.458 189.84C115.725 190.085 115.858 190.395 115.858 190.768C115.858 191.141 115.725 191.456 115.458 191.712C115.202 191.957 114.877 192.08 114.482 192.08ZM115.586 193.136V202H113.346V193.136H115.586ZM122.711 193.008C123.767 193.008 124.621 193.344 125.271 194.016C125.922 194.677 126.247 195.605 126.247 196.8V202H124.007V197.104C124.007 196.4 123.831 195.861 123.479 195.488C123.127 195.104 122.647 194.912 122.039 194.912C121.421 194.912 120.93 195.104 120.567 195.488C120.215 195.861 120.039 196.4 120.039 197.104V202H117.799V193.136H120.039V194.24C120.338 193.856 120.717 193.557 121.175 193.344C121.645 193.12 122.157 193.008 122.711 193.008ZM132.441 194.976H130.889V202H128.617V194.976H127.609V193.136H128.617V192.688C128.617 191.6 128.927 190.8 129.545 190.288C130.164 189.776 131.097 189.536 132.345 189.568V191.456C131.801 191.445 131.423 191.536 131.209 191.728C130.996 191.92 130.889 192.267 130.889 192.768V193.136H132.441V194.976ZM137.829 202.144C136.976 202.144 136.208 201.957 135.525 201.584C134.842 201.2 134.304 200.661 133.909 199.968C133.525 199.275 133.333 198.475 133.333 197.568C133.333 196.661 133.53 195.861 133.925 195.168C134.33 194.475 134.88 193.941 135.573 193.568C136.266 193.184 137.04 192.992 137.893 192.992C138.746 192.992 139.52 193.184 140.213 193.568C140.906 193.941 141.45 194.475 141.845 195.168C142.25 195.861 142.453 196.661 142.453 197.568C142.453 198.475 142.245 199.275 141.829 199.968C141.424 200.661 140.869 201.2 140.165 201.584C139.472 201.957 138.693 202.144 137.829 202.144ZM137.829 200.192C138.234 200.192 138.613 200.096 138.965 199.904C139.328 199.701 139.616 199.403 139.829 199.008C140.042 198.613 140.149 198.133 140.149 197.568C140.149 196.725 139.925 196.08 139.477 195.632C139.04 195.173 138.501 194.944 137.861 194.944C137.221 194.944 136.682 195.173 136.245 195.632C135.818 196.08 135.605 196.725 135.605 197.568C135.605 198.411 135.813 199.061 136.229 199.52C136.656 199.968 137.189 200.192 137.829 200.192ZM152.624 191.504C153.862 191.504 154.934 191.733 155.84 192.192C156.747 192.651 157.44 193.296 157.92 194.128C158.411 194.96 158.656 195.92 158.656 197.008C158.656 197.883 158.502 198.709 158.192 199.488C157.894 200.267 157.456 200.896 156.88 201.376C156.304 201.856 155.622 202.096 154.832 202.096C154.278 202.096 153.83 201.984 153.488 201.76C153.147 201.525 152.928 201.195 152.832 200.768C152.523 201.184 152.123 201.515 151.632 201.76C151.142 201.995 150.624 202.112 150.08 202.112C149.27 202.112 148.635 201.872 148.176 201.392C147.718 200.901 147.488 200.235 147.488 199.392C147.488 198.592 147.654 197.845 147.984 197.152C148.315 196.459 148.774 195.904 149.36 195.488C149.947 195.061 150.608 194.848 151.344 194.848C152.262 194.848 152.891 195.168 153.232 195.808L153.376 194.976H155.248L154.496 199.296C154.464 199.499 154.448 199.685 154.448 199.856C154.448 200.112 154.502 200.304 154.608 200.432C154.715 200.56 154.896 200.624 155.152 200.624C155.536 200.624 155.856 200.443 156.112 200.08C156.379 199.717 156.576 199.264 156.704 198.72C156.843 198.176 156.912 197.632 156.912 197.088C156.912 195.797 156.518 194.8 155.728 194.096C154.939 193.381 153.824 193.024 152.384 193.024C151.158 193.024 150.048 193.323 149.056 193.92C148.064 194.507 147.286 195.312 146.72 196.336C146.166 197.349 145.888 198.48 145.888 199.728C145.888 201.051 146.278 202.069 147.056 202.784C147.846 203.499 148.96 203.856 150.4 203.856C151.435 203.856 152.347 203.669 153.136 203.296L153.456 204.768C152.443 205.195 151.318 205.408 150.08 205.408C148.886 205.408 147.84 205.179 146.944 204.72C146.048 204.272 145.355 203.632 144.864 202.8C144.374 201.968 144.128 201.003 144.128 199.904C144.128 198.336 144.491 196.912 145.216 195.632C145.952 194.352 146.966 193.344 148.256 192.608C149.558 191.872 151.014 191.504 152.624 191.504ZM150.784 200.448C151.168 200.448 151.52 200.336 151.84 200.112C152.16 199.888 152.411 199.589 152.592 199.216C152.784 198.843 152.88 198.443 152.88 198.016C152.88 197.568 152.758 197.205 152.512 196.928C152.267 196.651 151.926 196.512 151.488 196.512C151.094 196.512 150.747 196.635 150.448 196.88C150.15 197.115 149.915 197.424 149.744 197.808C149.584 198.192 149.504 198.597 149.504 199.024C149.504 199.461 149.611 199.808 149.824 200.064C150.038 200.32 150.358 200.448 150.784 200.448ZM171.917 193.008C173.005 193.008 173.879 193.344 174.541 194.016C175.213 194.677 175.549 195.605 175.549 196.8V202H173.309V197.104C173.309 196.411 173.133 195.883 172.781 195.52C172.429 195.147 171.949 194.96 171.341 194.96C170.733 194.96 170.247 195.147 169.885 195.52C169.533 195.883 169.357 196.411 169.357 197.104V202H167.117V197.104C167.117 196.411 166.941 195.883 166.589 195.52C166.237 195.147 165.757 194.96 165.149 194.96C164.53 194.96 164.039 195.147 163.677 195.52C163.325 195.883 163.149 196.411 163.149 197.104V202H160.909V193.136H163.149V194.208C163.437 193.835 163.805 193.541 164.253 193.328C164.711 193.115 165.213 193.008 165.757 193.008C166.45 193.008 167.069 193.157 167.613 193.456C168.157 193.744 168.578 194.16 168.877 194.704C169.165 194.192 169.581 193.781 170.125 193.472C170.679 193.163 171.277 193.008 171.917 193.008ZM181.61 202.144C180.757 202.144 179.989 201.957 179.306 201.584C178.624 201.2 178.085 200.661 177.69 199.968C177.306 199.275 177.114 198.475 177.114 197.568C177.114 196.661 177.312 195.861 177.706 195.168C178.112 194.475 178.661 193.941 179.354 193.568C180.048 193.184 180.821 192.992 181.674 192.992C182.528 192.992 183.301 193.184 183.994 193.568C184.688 193.941 185.232 194.475 185.626 195.168C186.032 195.861 186.234 196.661 186.234 197.568C186.234 198.475 186.026 199.275 185.61 199.968C185.205 200.661 184.65 201.2 183.946 201.584C183.253 201.957 182.474 202.144 181.61 202.144ZM181.61 200.192C182.016 200.192 182.394 200.096 182.746 199.904C183.109 199.701 183.397 199.403 183.61 199.008C183.824 198.613 183.93 198.133 183.93 197.568C183.93 196.725 183.706 196.08 183.258 195.632C182.821 195.173 182.282 194.944 181.642 194.944C181.002 194.944 180.464 195.173 180.026 195.632C179.6 196.08 179.386 196.725 179.386 197.568C179.386 198.411 179.594 199.061 180.01 199.52C180.437 199.968 180.97 200.192 181.61 200.192ZM192.789 193.008C193.845 193.008 194.699 193.344 195.349 194.016C196 194.677 196.325 195.605 196.325 196.8V202H194.085V197.104C194.085 196.4 193.909 195.861 193.557 195.488C193.205 195.104 192.725 194.912 192.117 194.912C191.499 194.912 191.008 195.104 190.645 195.488C190.293 195.861 190.117 196.4 190.117 197.104V202H187.877V193.136H190.117V194.24C190.416 193.856 190.795 193.557 191.253 193.344C191.723 193.12 192.235 193.008 192.789 193.008ZM202.392 202.144C201.538 202.144 200.77 201.957 200.088 201.584C199.405 201.2 198.866 200.661 198.472 199.968C198.088 199.275 197.896 198.475 197.896 197.568C197.896 196.661 198.093 195.861 198.488 195.168C198.893 194.475 199.442 193.941 200.136 193.568C200.829 193.184 201.602 192.992 202.456 192.992C203.309 192.992 204.082 193.184 204.776 193.568C205.469 193.941 206.013 194.475 206.408 195.168C206.813 195.861 207.016 196.661 207.016 197.568C207.016 198.475 206.808 199.275 206.392 199.968C205.986 200.661 205.432 201.2 204.728 201.584C204.034 201.957 203.256 202.144 202.392 202.144ZM202.392 200.192C202.797 200.192 203.176 200.096 203.528 199.904C203.89 199.701 204.178 199.403 204.392 199.008C204.605 198.613 204.712 198.133 204.712 197.568C204.712 196.725 204.488 196.08 204.04 195.632C203.602 195.173 203.064 194.944 202.424 194.944C201.784 194.944 201.245 195.173 200.808 195.632C200.381 196.08 200.168 196.725 200.168 197.568C200.168 198.411 200.376 199.061 200.792 199.52C201.218 199.968 201.752 200.192 202.392 200.192ZM210.899 190.16V202H208.659V190.16H210.899ZM217.048 202.144C216.194 202.144 215.426 201.957 214.744 201.584C214.061 201.2 213.522 200.661 213.128 199.968C212.744 199.275 212.552 198.475 212.552 197.568C212.552 196.661 212.749 195.861 213.144 195.168C213.549 194.475 214.098 193.941 214.792 193.568C215.485 193.184 216.258 192.992 217.112 192.992C217.965 192.992 218.738 193.184 219.432 193.568C220.125 193.941 220.669 194.475 221.064 195.168C221.469 195.861 221.672 196.661 221.672 197.568C221.672 198.475 221.464 199.275 221.048 199.968C220.642 200.661 220.088 201.2 219.384 201.584C218.69 201.957 217.912 202.144 217.048 202.144ZM217.048 200.192C217.453 200.192 217.832 200.096 218.184 199.904C218.546 199.701 218.834 199.403 219.048 199.008C219.261 198.613 219.368 198.133 219.368 197.568C219.368 196.725 219.144 196.08 218.696 195.632C218.258 195.173 217.72 194.944 217.08 194.944C216.44 194.944 215.901 195.173 215.464 195.632C215.037 196.08 214.824 196.725 214.824 197.568C214.824 198.411 215.032 199.061 215.448 199.52C215.874 199.968 216.408 200.192 217.048 200.192ZM226.787 192.992C227.448 192.992 228.03 193.125 228.531 193.392C229.032 193.648 229.427 193.984 229.715 194.4V193.136H231.971V202.064C231.971 202.885 231.806 203.616 231.475 204.256C231.144 204.907 230.648 205.419 229.987 205.792C229.326 206.176 228.526 206.368 227.587 206.368C226.328 206.368 225.294 206.075 224.483 205.488C223.683 204.901 223.23 204.101 223.123 203.088H225.347C225.464 203.493 225.715 203.813 226.099 204.048C226.494 204.293 226.968 204.416 227.523 204.416C228.174 204.416 228.702 204.219 229.107 203.824C229.512 203.44 229.715 202.853 229.715 202.064V200.688C229.427 201.104 229.027 201.451 228.515 201.728C228.014 202.005 227.438 202.144 226.787 202.144C226.04 202.144 225.358 201.952 224.739 201.568C224.12 201.184 223.63 200.645 223.267 199.952C222.915 199.248 222.739 198.443 222.739 197.536C222.739 196.64 222.915 195.845 223.267 195.152C223.63 194.459 224.115 193.925 224.723 193.552C225.342 193.179 226.03 192.992 226.787 192.992ZM229.715 197.568C229.715 197.024 229.608 196.56 229.395 196.176C229.182 195.781 228.894 195.483 228.531 195.28C228.168 195.067 227.779 194.96 227.363 194.96C226.947 194.96 226.563 195.061 226.211 195.264C225.859 195.467 225.571 195.765 225.347 196.16C225.134 196.544 225.027 197.003 225.027 197.536C225.027 198.069 225.134 198.539 225.347 198.944C225.571 199.339 225.859 199.643 226.211 199.856C226.574 200.069 226.958 200.176 227.363 200.176C227.779 200.176 228.168 200.075 228.531 199.872C228.894 199.659 229.182 199.36 229.395 198.976C229.608 198.581 229.715 198.112 229.715 197.568ZM235.151 202.112C234.745 202.112 234.409 201.989 234.143 201.744C233.887 201.488 233.759 201.173 233.759 200.8C233.759 200.427 233.887 200.117 234.143 199.872C234.409 199.616 234.745 199.488 235.151 199.488C235.545 199.488 235.871 199.616 236.127 199.872C236.383 200.117 236.511 200.427 236.511 200.8C236.511 201.173 236.383 201.488 236.127 201.744C235.871 201.989 235.545 202.112 235.151 202.112ZM237.739 197.568C237.739 196.651 237.926 195.851 238.299 195.168C238.672 194.475 239.19 193.941 239.851 193.568C240.512 193.184 241.27 192.992 242.123 192.992C243.222 192.992 244.128 193.269 244.843 193.824C245.568 194.368 246.054 195.136 246.299 196.128H243.883C243.755 195.744 243.536 195.445 243.227 195.232C242.928 195.008 242.555 194.896 242.107 194.896C241.467 194.896 240.96 195.131 240.587 195.6C240.214 196.059 240.027 196.715 240.027 197.568C240.027 198.411 240.214 199.067 240.587 199.536C240.96 199.995 241.467 200.224 242.107 200.224C243.014 200.224 243.606 199.819 243.883 199.008H246.299C246.054 199.968 245.568 200.731 244.843 201.296C244.118 201.861 243.211 202.144 242.123 202.144C241.27 202.144 240.512 201.957 239.851 201.584C239.19 201.2 238.672 200.667 238.299 199.984C237.926 199.291 237.739 198.485 237.739 197.568ZM251.876 202.144C251.023 202.144 250.255 201.957 249.572 201.584C248.889 201.2 248.351 200.661 247.956 199.968C247.572 199.275 247.38 198.475 247.38 197.568C247.38 196.661 247.577 195.861 247.972 195.168C248.377 194.475 248.927 193.941 249.62 193.568C250.313 193.184 251.087 192.992 251.94 192.992C252.793 192.992 253.567 193.184 254.26 193.568C254.953 193.941 255.497 194.475 255.892 195.168C256.297 195.861 256.5 196.661 256.5 197.568C256.5 198.475 256.292 199.275 255.876 199.968C255.471 200.661 254.916 201.2 254.212 201.584C253.519 201.957 252.74 202.144 251.876 202.144ZM251.876 200.192C252.281 200.192 252.66 200.096 253.012 199.904C253.375 199.701 253.663 199.403 253.876 199.008C254.089 198.613 254.196 198.133 254.196 197.568C254.196 196.725 253.972 196.08 253.524 195.632C253.087 195.173 252.548 194.944 251.908 194.944C251.268 194.944 250.729 195.173 250.292 195.632C249.865 196.08 249.652 196.725 249.652 197.568C249.652 198.411 249.86 199.061 250.276 199.52C250.703 199.968 251.236 200.192 251.876 200.192ZM269.151 193.008C270.239 193.008 271.114 193.344 271.775 194.016C272.447 194.677 272.783 195.605 272.783 196.8V202H270.543V197.104C270.543 196.411 270.367 195.883 270.015 195.52C269.663 195.147 269.183 194.96 268.575 194.96C267.967 194.96 267.482 195.147 267.119 195.52C266.767 195.883 266.591 196.411 266.591 197.104V202H264.351V197.104C264.351 196.411 264.175 195.883 263.823 195.52C263.471 195.147 262.991 194.96 262.383 194.96C261.764 194.96 261.274 195.147 260.911 195.52C260.559 195.883 260.383 196.411 260.383 197.104V202H258.143V193.136H260.383V194.208C260.671 193.835 261.039 193.541 261.487 193.328C261.946 193.115 262.447 193.008 262.991 193.008C263.684 193.008 264.303 193.157 264.847 193.456C265.391 193.744 265.812 194.16 266.111 194.704C266.399 194.192 266.815 193.781 267.359 193.472C267.914 193.163 268.511 193.008 269.151 193.008Z" fill="white"/>
</svg>
