<svg width="35" height="40" viewBox="0 0 35 40" fill="none" xmlns="http://www.w3.org/2000/svg">
<path d="M9.49984 18.6667H8.1665V21.3333H9.49984V18.6667ZM25.4998 21.3333H26.8332V18.6667H25.4998V21.3333ZM20.1665 26.6667H18.8332V29.3333H20.1665V26.6667ZM25.4998 29.3333H26.8332V26.6667H25.4998V29.3333ZM9.49984 10.6667H8.1665V13.3333H9.49984V10.6667ZM14.8332 13.3333H16.1665V10.6667H14.8332V13.3333ZM25.4998 1.33333L26.4438 0.389333L26.0518 0H25.4998V1.33333ZM33.4998 9.33333H34.8332V8.78133L34.4438 8.38933L33.4998 9.33333ZM9.49984 21.3333H25.4998V18.6667H9.49984V21.3333ZM20.1665 29.3333H25.4998V26.6667H20.1665V29.3333ZM9.49984 13.3333H14.8332V10.6667H9.49984V13.3333ZM30.8332 37.3333H4.1665V40H30.8332V37.3333ZM2.83317 36V4H0.166504V36H2.83317ZM4.1665 2.66667H25.4998V0H4.1665V2.66667ZM32.1665 9.33333V36H34.8332V9.33333H32.1665ZM24.5558 2.27733L32.5558 10.2773L34.4438 8.38933L26.4438 0.389333L24.5558 2.27733ZM4.1665 37.3333C3.81288 37.3333 3.47374 37.1929 3.2237 36.9428C2.97365 36.6928 2.83317 36.3536 2.83317 36H0.166504C0.166504 37.0609 0.587931 38.0783 1.33808 38.8284C2.08822 39.5786 3.10564 40 4.1665 40V37.3333ZM30.8332 40C31.894 40 32.9114 39.5786 33.6616 38.8284C34.4117 38.0783 34.8332 37.0609 34.8332 36H32.1665C32.1665 36.3536 32.026 36.6928 31.776 36.9428C31.5259 37.1929 31.1868 37.3333 30.8332 37.3333V40ZM2.83317 4C2.83317 3.64638 2.97365 3.30724 3.2237 3.05719C3.47374 2.80714 3.81288 2.66667 4.1665 2.66667V0C3.10564 0 2.08822 0.421427 1.33808 1.17157C0.587931 1.92172 0.166504 2.93913 0.166504 4H2.83317Z" fill="#00902F"/>
</svg>
