<svg width="12" height="12" viewBox="0 0 12 12" fill="none" xmlns="http://www.w3.org/2000/svg">
<path d="M9.11508 2.18435C8.97663 2.18435 8.8413 2.2254 8.72618 2.30232C8.61107 2.37924 8.52135 2.48856 8.46837 2.61647C8.41538 2.74438 8.40152 2.88513 8.42853 3.02091C8.45554 3.1567 8.52221 3.28143 8.62011 3.37932C8.718 3.47722 8.84273 3.54389 8.97852 3.5709C9.1143 3.59791 9.25505 3.58405 9.38296 3.53106C9.51087 3.47808 9.62019 3.38836 9.69711 3.27325C9.77403 3.15813 9.81508 3.0228 9.81508 2.88435C9.81508 2.6987 9.74133 2.52065 9.61006 2.38937C9.47878 2.2581 9.30073 2.18435 9.11508 2.18435ZM11.7984 3.59602C11.7871 3.11202 11.6964 2.63317 11.5301 2.17852C11.3818 1.78951 11.1509 1.43726 10.8534 1.14602C10.5646 0.847014 10.2115 0.617619 9.82091 0.475182C9.36746 0.303776 8.88808 0.211055 8.40341 0.201016C7.78508 0.166016 7.58675 0.166016 6.00008 0.166016C4.41341 0.166016 4.21508 0.166016 3.59675 0.201016C3.11209 0.211055 2.6327 0.303776 2.17925 0.475182C1.78939 0.619061 1.43663 0.848259 1.14675 1.14602C0.847746 1.43487 0.618351 1.78794 0.475915 2.17852C0.304509 2.63197 0.211787 3.11135 0.201748 3.59602C0.166748 4.21435 0.166748 4.41268 0.166748 5.99935C0.166748 7.58602 0.166748 7.78435 0.201748 8.40268C0.211787 8.88734 0.304509 9.36673 0.475915 9.82018C0.618351 10.2108 0.847746 10.5638 1.14675 10.8527C1.43663 11.1504 1.78939 11.3796 2.17925 11.5235C2.6327 11.6949 3.11209 11.7876 3.59675 11.7977C4.21508 11.8327 4.41341 11.8327 6.00008 11.8327C7.58675 11.8327 7.78508 11.8327 8.40341 11.7977C8.88808 11.7876 9.36746 11.6949 9.82091 11.5235C10.2115 11.3811 10.5646 11.1517 10.8534 10.8527C11.1522 10.5625 11.3833 10.21 11.5301 9.82018C11.6964 9.36553 11.7871 8.88667 11.7984 8.40268C11.7984 7.78435 11.8334 7.58602 11.8334 5.99935C11.8334 4.41268 11.8334 4.21435 11.7984 3.59602ZM10.7484 8.33268C10.7442 8.70296 10.6771 9.06984 10.5501 9.41768C10.4569 9.67155 10.3073 9.90093 10.1126 10.0885C9.92338 10.2813 9.69446 10.4306 9.44175 10.526C9.09391 10.653 8.72703 10.7201 8.35675 10.7243C7.77342 10.7535 7.55758 10.7593 6.02341 10.7593C4.48925 10.7593 4.27341 10.7593 3.69008 10.7243C3.3056 10.7315 2.92276 10.6723 2.55841 10.5493C2.31679 10.4491 2.09837 10.3001 1.91675 10.1118C1.72313 9.92445 1.57541 9.69488 1.48508 9.44102C1.34266 9.08819 1.26367 8.71298 1.25175 8.33268C1.25175 7.74935 1.21675 7.53352 1.21675 5.99935C1.21675 4.46518 1.21675 4.24935 1.25175 3.66602C1.25436 3.28746 1.32347 2.91232 1.45591 2.55768C1.55861 2.31146 1.71624 2.09198 1.91675 1.91602C2.09397 1.71545 2.313 1.55615 2.55841 1.44935C2.91399 1.32104 3.28875 1.25398 3.66675 1.25102C4.25008 1.25102 4.46591 1.21602 6.00008 1.21602C7.53425 1.21602 7.75008 1.21602 8.33341 1.25102C8.7037 1.25526 9.07057 1.32233 9.41842 1.44935C9.6835 1.54773 9.92142 1.70768 10.1126 1.91602C10.3037 2.0952 10.4531 2.31428 10.5501 2.55768C10.6797 2.91289 10.7468 3.28789 10.7484 3.66602C10.7776 4.24935 10.7834 4.46518 10.7834 5.99935C10.7834 7.53352 10.7776 7.74935 10.7484 8.33268ZM6.00008 3.00685C5.40847 3.008 4.83048 3.18449 4.33913 3.51401C3.84778 3.84353 3.46514 4.3113 3.23953 4.8582C3.01393 5.40511 2.9555 6.00662 3.07163 6.58672C3.18775 7.16683 3.47322 7.69949 3.89196 8.11742C4.3107 8.53535 4.84392 8.81977 5.42425 8.93477C6.00458 9.04976 6.60597 8.99016 7.15244 8.7635C7.69891 8.53683 8.16593 8.15327 8.49449 7.66128C8.82305 7.1693 8.99841 6.59096 8.99841 5.99935C8.99919 5.60566 8.92212 5.2157 8.77164 4.85191C8.62116 4.48811 8.40024 4.15765 8.12159 3.87954C7.84294 3.60144 7.51205 3.38116 7.14796 3.23139C6.78387 3.08162 6.39377 3.00531 6.00008 3.00685ZM6.00008 7.94185C5.61589 7.94185 5.24033 7.82792 4.92089 7.61448C4.60144 7.40103 4.35247 7.09766 4.20545 6.74271C4.05842 6.38777 4.01995 5.99719 4.09491 5.62039C4.16986 5.24358 4.35486 4.89746 4.62653 4.62579C4.89819 4.35413 5.24431 4.16913 5.62112 4.09417C5.99793 4.01922 6.3885 4.05769 6.74344 4.20471C7.09839 4.35174 7.40177 4.60071 7.61521 4.92015C7.82866 5.2396 7.94258 5.61516 7.94258 5.99935C7.94258 6.25444 7.89234 6.50704 7.79472 6.74271C7.6971 6.97839 7.55401 7.19253 7.37364 7.3729C7.19326 7.55328 6.97912 7.69636 6.74344 7.79398C6.50777 7.8916 6.25517 7.94185 6.00008 7.94185Z" fill="#151515"/>
</svg>
