<svg width="14" height="14" viewBox="0 0 14 14" fill="none" xmlns="http://www.w3.org/2000/svg">
<path d="M10.2084 5.24977C9.68614 5.24955 9.17199 5.37872 8.71188 5.62575C8.66989 5.51516 8.59525 5.41997 8.49788 5.35281C8.4005 5.28566 8.285 5.24972 8.16671 5.24977H5.83338C5.75676 5.24973 5.68089 5.26479 5.61009 5.29409C5.5393 5.32338 5.47498 5.36635 5.4208 5.42053C5.36662 5.4747 5.32366 5.53903 5.29436 5.60982C5.26506 5.68061 5.25 5.75649 5.25004 5.8331V12.8331C5.25 12.9097 5.26506 12.9856 5.29436 13.0564C5.32366 13.1272 5.36662 13.1915 5.4208 13.2457C5.47498 13.2999 5.5393 13.3428 5.61009 13.3721C5.68089 13.4014 5.75676 13.4165 5.83338 13.4164H8.16671C8.24333 13.4165 8.3192 13.4014 8.38999 13.3721C8.46079 13.3428 8.52511 13.2999 8.57929 13.2457C8.63346 13.1915 8.67643 13.1272 8.70573 13.0564C8.73503 12.9856 8.75009 12.9097 8.75004 12.8331V9.62477C8.75004 9.47006 8.8115 9.32169 8.9209 9.21229C9.03029 9.10289 9.17867 9.04144 9.33338 9.04144C9.48809 9.04144 9.63646 9.10289 9.74586 9.21229C9.85525 9.32169 9.91671 9.47006 9.91671 9.62477V12.8331C9.91667 12.9097 9.93172 12.9856 9.96102 13.0564C9.99032 13.1272 10.0333 13.1915 10.0875 13.2457C10.1416 13.2999 10.206 13.3428 10.2768 13.3721C10.3476 13.4014 10.4234 13.4165 10.5 13.4164H12.8334C12.91 13.4165 12.9859 13.4014 13.0567 13.3721C13.1275 13.3428 13.1918 13.2999 13.246 13.2457C13.3001 13.1915 13.3431 13.1272 13.3724 13.0564C13.4017 12.9856 13.4168 12.9097 13.4167 12.8331V8.4581C13.4157 7.60753 13.0773 6.79209 12.4758 6.19064C11.8744 5.58919 11.059 5.25083 10.2084 5.24977ZM12.25 12.2498H11.0834V9.62477C11.0834 9.16064 10.899 8.71552 10.5708 8.38733C10.2426 8.05914 9.79751 7.87477 9.33338 7.87477C8.86925 7.87477 8.42413 8.05914 8.09594 8.38733C7.76775 8.71552 7.58338 9.16064 7.58338 9.62477V12.2498H6.41671V6.41644H7.58338V6.8266C7.58345 6.94746 7.62104 7.06533 7.69097 7.16391C7.7609 7.26249 7.85971 7.33693 7.97376 7.37695C8.08781 7.41697 8.21147 7.42059 8.32767 7.38731C8.44387 7.35404 8.54686 7.2855 8.62244 7.19118C8.88422 6.8587 9.2433 6.61627 9.64953 6.49774C10.0558 6.37921 10.4889 6.39049 10.8884 6.53002C11.2879 6.66954 11.6339 6.93035 11.878 7.27601C12.1221 7.62167 12.2522 8.03494 12.25 8.4581V12.2498ZM4.08338 5.24977H1.75004C1.67343 5.24973 1.59755 5.26479 1.52676 5.29409C1.45597 5.32338 1.39164 5.36635 1.33747 5.42053C1.28329 5.4747 1.24033 5.53903 1.21103 5.60982C1.18173 5.68061 1.16667 5.75649 1.16671 5.8331V12.8331C1.16667 12.9097 1.18172 12.9856 1.21102 13.0564C1.24032 13.1272 1.28329 13.1915 1.33747 13.2457C1.39164 13.2999 1.45597 13.3428 1.52676 13.3721C1.59755 13.4014 1.67343 13.4165 1.75004 13.4164H4.08338C4.15999 13.4165 4.23587 13.4014 4.30666 13.3721C4.37745 13.3428 4.44178 13.2999 4.49596 13.2457C4.55013 13.1915 4.5931 13.1272 4.6224 13.0564C4.6517 12.9856 4.66676 12.9097 4.66671 12.8331V5.8331C4.66675 5.75649 4.6517 5.68061 4.6224 5.60982C4.5931 5.53903 4.55013 5.4747 4.49595 5.42053C4.44178 5.36635 4.37745 5.32338 4.30666 5.29409C4.23587 5.26479 4.15999 5.24973 4.08338 5.24977ZM3.50004 12.2498H2.33338V6.41644H3.50004V12.2498ZM2.92526 0.899854C2.66997 0.884573 2.41424 0.921377 2.17362 1.00803C1.933 1.09468 1.71252 1.22937 1.52559 1.40391C1.33866 1.57844 1.18918 1.78918 1.08624 2.0233C0.983312 2.25741 0.929074 2.51002 0.92683 2.76576C0.924587 3.02149 0.974384 3.27501 1.07319 3.5109C1.172 3.74679 1.31776 3.96011 1.5016 4.1379C1.68544 4.31569 1.90352 4.45423 2.14259 4.54509C2.38165 4.63595 2.63669 4.67724 2.89221 4.66644H2.90873C3.1647 4.68164 3.42107 4.64449 3.6622 4.55727C3.90332 4.47004 4.12413 4.33456 4.31112 4.15912C4.49812 3.98367 4.64738 3.77194 4.74978 3.53686C4.85218 3.30178 4.90558 3.04829 4.9067 2.79187C4.90783 2.53546 4.85666 2.28151 4.75632 2.04554C4.65599 1.80957 4.50859 1.59654 4.32314 1.41946C4.13769 1.24238 3.91808 1.10497 3.67773 1.01563C3.43738 0.92629 3.18134 0.886896 2.92525 0.899854H2.92526ZM2.90874 3.49977H2.89221C2.79133 3.51202 2.689 3.50256 2.59208 3.47202C2.49516 3.44148 2.40589 3.39057 2.33025 3.32271C2.25462 3.25484 2.19437 3.17159 2.15354 3.07853C2.11272 2.98547 2.09227 2.88476 2.09355 2.78315C2.09355 2.34793 2.41997 2.06651 2.92526 2.06651C3.02716 2.05293 3.1308 2.06134 3.22918 2.09118C3.32757 2.12102 3.41841 2.1716 3.4956 2.2395C3.57279 2.30741 3.63453 2.39107 3.67667 2.48485C3.71881 2.57863 3.74036 2.68034 3.73987 2.78315C3.73987 3.21837 3.41345 3.49977 2.90874 3.49977Z" fill="#151515"/>
</svg>
