<svg width="16" height="18" viewBox="0 0 16 18" fill="none" xmlns="http://www.w3.org/2000/svg">
<path d="M6.33333 5.34375H11.3333C11.5543 5.34375 11.7663 5.25595 11.9226 5.09967C12.0789 4.94339 12.1667 4.73143 12.1667 4.51042C12.1667 4.2894 12.0789 4.07744 11.9226 3.92116C11.7663 3.76488 11.5543 3.67708 11.3333 3.67708H6.33333C6.11232 3.67708 5.90036 3.76488 5.74408 3.92116C5.5878 4.07744 5.5 4.2894 5.5 4.51042C5.5 4.73143 5.5878 4.94339 5.74408 5.09967C5.90036 5.25595 6.11232 5.34375 6.33333 5.34375ZM4.66667 8.67708H11.3333C11.5543 8.67708 11.7663 8.58929 11.9226 8.43301C12.0789 8.27673 12.1667 8.06476 12.1667 7.84375C12.1667 7.62274 12.0789 7.41078 11.9226 7.2545C11.7663 7.09822 11.5543 7.01042 11.3333 7.01042H4.66667C4.44565 7.01042 4.23369 7.09822 4.07741 7.2545C3.92113 7.41078 3.83333 7.62274 3.83333 7.84375C3.83333 8.06476 3.92113 8.27673 4.07741 8.43301C4.23369 8.58929 4.44565 8.67708 4.66667 8.67708ZM4.66667 12.0104H11.3333C11.5543 12.0104 11.7663 11.9226 11.9226 11.7663C12.0789 11.6101 12.1667 11.3981 12.1667 11.1771C12.1667 10.9561 12.0789 10.7441 11.9226 10.5878C11.7663 10.4315 11.5543 10.3438 11.3333 10.3438H4.66667C4.44565 10.3438 4.23369 10.4315 4.07741 10.5878C3.92113 10.7441 3.83333 10.9561 3.83333 11.1771C3.83333 11.3981 3.92113 11.6101 4.07741 11.7663C4.23369 11.9226 4.44565 12.0104 4.66667 12.0104ZM14.6667 0.34375H1.33333C1.11232 0.34375 0.900358 0.431547 0.744078 0.587828C0.587797 0.744108 0.5 0.95607 0.5 1.17708V16.1771C0.5 16.3318 0.543096 16.4835 0.624458 16.6152C0.70582 16.7468 0.822234 16.8532 0.960655 16.9224C1.09908 16.9917 1.25404 17.021 1.40817 17.0071C1.56231 16.9932 1.70953 16.9366 1.83333 16.8438L3.55833 15.5521L5.275 16.8438C5.41925 16.9519 5.59469 17.0104 5.775 17.0104C5.95531 17.0104 6.13075 16.9519 6.275 16.8438L8 15.5521L9.725 16.8438C9.86925 16.9519 10.0447 17.0104 10.225 17.0104C10.4053 17.0104 10.5808 16.9519 10.725 16.8438L12.4417 15.5521L14.1667 16.8438C14.2911 16.9365 14.4389 16.9926 14.5935 17.0059C14.7481 17.0191 14.9033 16.9889 15.0417 16.9188C15.1791 16.8495 15.2947 16.7435 15.3756 16.6126C15.4565 16.4817 15.4995 16.331 15.5 16.1771V1.17708C15.5 0.95607 15.4122 0.744108 15.2559 0.587828C15.0996 0.431547 14.8877 0.34375 14.6667 0.34375ZM13.8333 14.5104L12.9417 13.8438C12.7974 13.7356 12.622 13.6771 12.4417 13.6771C12.2614 13.6771 12.0859 13.7356 11.9417 13.8438L10.225 15.1354L8.5 13.8438C8.35575 13.7356 8.18031 13.6771 8 13.6771C7.81969 13.6771 7.64425 13.7356 7.5 13.8438L5.775 15.1354L4.05833 13.8438C3.91409 13.7356 3.73864 13.6771 3.55833 13.6771C3.37802 13.6771 3.20258 13.7356 3.05833 13.8438L2.16667 14.5104V2.01042H13.8333V14.5104Z" fill="white"/>
</svg>
