<svg width="67" height="49" viewBox="0 0 67 49" fill="none" xmlns="http://www.w3.org/2000/svg">
<path d="M64.8558 1.94862C64.4201 1.50933 63.9017 1.16065 63.3306 0.922707C62.7595 0.684761 62.1469 0.562256 61.5281 0.562256C60.9094 0.562256 60.2968 0.684761 59.7257 0.922707C59.1545 1.16065 58.6362 1.50933 58.2005 1.94862L23.2833 36.9127L8.61339 22.1959C8.161 21.7589 7.62698 21.4153 7.0418 21.1847C6.45662 20.9541 5.83174 20.841 5.20286 20.8518C4.57397 20.8627 3.95338 20.9974 3.37653 21.2481C2.79968 21.4988 2.27786 21.8607 1.84086 22.3131C1.40386 22.7655 1.06025 23.2995 0.829639 23.8847C0.599026 24.4698 0.48593 25.0947 0.49681 25.7236C0.507691 26.3525 0.642334 26.9731 0.893051 27.5499C1.14377 28.1268 1.50565 28.6486 1.95803 29.0856L19.9556 47.0832C20.3913 47.5225 20.9097 47.8711 21.4808 48.1091C22.052 48.347 22.6646 48.4695 23.2833 48.4695C23.902 48.4695 24.5146 48.347 25.0858 48.1091C25.6569 47.8711 26.1753 47.5225 26.611 47.0832L64.8558 8.83832C65.3316 8.39943 65.7112 7.86676 65.9709 7.27387C66.2306 6.68099 66.3647 6.04074 66.3647 5.39347C66.3647 4.74621 66.2306 4.10596 65.9709 3.51307C65.7112 2.92018 65.3316 2.38751 64.8558 1.94862Z" fill="#00902F"/>
</svg>
