<svg width="24" height="24" viewBox="0 0 24 24" fill="none" xmlns="http://www.w3.org/2000/svg">
<path d="M11.9997 8.49992C11.7689 8.49992 11.5434 8.56834 11.3515 8.69654C11.1597 8.82473 11.0101 9.00694 10.9218 9.22012C10.8335 9.4333 10.8104 9.66788 10.8554 9.89419C10.9004 10.1205 11.0116 10.3284 11.1747 10.4915C11.3379 10.6547 11.5458 10.7658 11.7721 10.8108C11.9984 10.8559 12.233 10.8327 12.4461 10.7444C12.6593 10.6561 12.8415 10.5066 12.9697 10.3148C13.0979 10.1229 13.1663 9.89733 13.1663 9.66658C13.1663 9.35717 13.0434 9.06042 12.8246 8.84163C12.6058 8.62284 12.3091 8.49992 11.9997 8.49992ZM20.1663 0.333252H3.83301C2.90475 0.333252 2.01451 0.702001 1.35813 1.35838C0.701757 2.01476 0.333008 2.90499 0.333008 3.83325V15.4999C0.333008 16.4282 0.701757 17.3184 1.35813 17.9748C2.01451 18.6312 2.90475 18.9999 3.83301 18.9999H17.3547L21.6713 23.3283C21.7804 23.4364 21.9096 23.5219 22.0518 23.58C22.1939 23.638 22.3461 23.6675 22.4997 23.6666C22.6527 23.6705 22.8045 23.6386 22.943 23.5733C23.1561 23.4857 23.3384 23.3371 23.4672 23.1461C23.5959 22.9551 23.6652 22.7302 23.6663 22.4999V3.83325C23.6663 2.90499 23.2976 2.01476 22.6412 1.35838C21.9848 0.702001 21.0946 0.333252 20.1663 0.333252ZM21.333 19.6883L18.6613 17.0049C18.5523 16.8968 18.423 16.8112 18.2809 16.7532C18.1388 16.6951 17.9865 16.6657 17.833 16.6666H3.83301C3.52359 16.6666 3.22684 16.5437 3.00805 16.3249C2.78926 16.1061 2.66634 15.8093 2.66634 15.4999V3.83325C2.66634 3.52383 2.78926 3.22709 3.00805 3.00829C3.22684 2.7895 3.52359 2.66659 3.83301 2.66659H20.1663C20.4758 2.66659 20.7725 2.7895 20.9913 3.00829C21.2101 3.22709 21.333 3.52383 21.333 3.83325V19.6883ZM7.33301 8.49992C7.10226 8.49992 6.8767 8.56834 6.68484 8.69654C6.49299 8.82473 6.34345 9.00694 6.25515 9.22012C6.16685 9.4333 6.14374 9.66788 6.18876 9.89419C6.23377 10.1205 6.34489 10.3284 6.50805 10.4915C6.67121 10.6547 6.87909 10.7658 7.1054 10.8108C7.33171 10.8559 7.56629 10.8327 7.77947 10.7444C7.99265 10.6561 8.17486 10.5066 8.30306 10.3148C8.43125 10.1229 8.49967 9.89733 8.49967 9.66658C8.49967 9.35717 8.37676 9.06042 8.15797 8.84163C7.93917 8.62284 7.64243 8.49992 7.33301 8.49992ZM16.6663 8.49992C16.4356 8.49992 16.21 8.56834 16.0182 8.69654C15.8263 8.82473 15.6768 9.00694 15.5885 9.22012C15.5002 9.4333 15.4771 9.66788 15.5221 9.89419C15.5671 10.1205 15.6782 10.3284 15.8414 10.4915C16.0045 10.6547 16.2124 10.7658 16.4387 10.8108C16.665 10.8559 16.8996 10.8327 17.1128 10.7444C17.326 10.6561 17.5082 10.5066 17.6364 10.3148C17.7646 10.1229 17.833 9.89733 17.833 9.66658C17.833 9.35717 17.7101 9.06042 17.4913 8.84163C17.2725 8.62284 16.9758 8.49992 16.6663 8.49992Z" fill="#808080"/>
</svg>
