<svg width="18" height="16" viewBox="0 0 18 16" fill="none" xmlns="http://www.w3.org/2000/svg">
<path d="M7.33342 9.3444H10.6667C10.8878 9.3444 11.0997 9.2566 11.256 9.10032C11.4123 8.94404 11.5001 8.73208 11.5001 8.51107C11.5001 8.29005 11.4123 8.07809 11.256 7.92181C11.0997 7.76553 10.8878 7.67773 10.6667 7.67773H7.33342C7.1124 7.67773 6.90044 7.76553 6.74416 7.92181C6.58788 8.07809 6.50008 8.29005 6.50008 8.51107C6.50008 8.73208 6.58788 8.94404 6.74416 9.10032C6.90044 9.2566 7.1124 9.3444 7.33342 9.3444ZM14.8334 0.177734H3.16675C2.50371 0.177734 1.86782 0.441127 1.39898 0.909967C0.93014 1.37881 0.666748 2.01469 0.666748 2.67773V5.17773C0.666748 5.39875 0.754545 5.61071 0.910826 5.76699C1.06711 5.92327 1.27907 6.01107 1.50008 6.01107H2.33341V12.6777C2.33341 13.3408 2.59681 13.9767 3.06565 14.4455C3.53449 14.9143 4.17037 15.1777 4.83342 15.1777H13.1667C13.8298 15.1777 14.4657 14.9143 14.9345 14.4455C15.4034 13.9767 15.6667 13.3408 15.6667 12.6777V6.01107H16.5001C16.7211 6.01107 16.9331 5.92327 17.0893 5.76699C17.2456 5.61071 17.3334 5.39875 17.3334 5.17773V2.67773C17.3334 2.01469 17.07 1.37881 16.6012 0.909967C16.1323 0.441127 15.4965 0.177734 14.8334 0.177734ZM14.0001 12.6777C14.0001 12.8987 13.9123 13.1107 13.756 13.267C13.5997 13.4233 13.3878 13.5111 13.1667 13.5111H4.83342C4.6124 13.5111 4.40044 13.4233 4.24416 13.267C4.08788 13.1107 4.00008 12.8987 4.00008 12.6777V6.01107H14.0001V12.6777ZM15.6667 4.3444H2.33341V2.67773C2.33341 2.45672 2.42121 2.24476 2.57749 2.08848C2.73377 1.9322 2.94573 1.8444 3.16675 1.8444H14.8334C15.0544 1.8444 15.2664 1.9322 15.4227 2.08848C15.579 2.24476 15.6667 2.45672 15.6667 2.67773V4.3444Z" fill="#00902F"/>
</svg>
