<svg width="18" height="16" viewBox="0 0 18 16" fill="none" xmlns="http://www.w3.org/2000/svg">
<path d="M4.51675 8.5771C4.41333 8.61453 4.31942 8.67424 4.24165 8.75201C4.16389 8.82977 4.10417 8.92369 4.06675 9.0271C4.00613 9.17854 3.99129 9.34444 4.02407 9.50424C4.05685 9.66403 4.13581 9.81069 4.25115 9.92603C4.36649 10.0414 4.51315 10.1203 4.67295 10.1531C4.83274 10.1859 4.99864 10.1711 5.15008 10.1104C5.25107 10.0682 5.34408 10.009 5.42508 9.93544C5.49869 9.85443 5.55788 9.76142 5.60008 9.66044C5.64673 9.56154 5.66957 9.45308 5.66675 9.34377C5.66368 9.12313 5.57736 8.9118 5.42508 8.7521C5.3079 8.63647 5.15908 8.55814 4.99743 8.527C4.83577 8.49585 4.66851 8.51329 4.51675 8.5771ZM15.4667 5.24377L14.3334 1.88544C14.1605 1.39646 13.8399 0.973355 13.4158 0.674736C12.9918 0.376117 12.4854 0.216769 11.9667 0.218769H6.03341C5.51478 0.216769 5.00837 0.376117 4.58433 0.674736C4.16029 0.973355 3.83962 1.39646 3.66675 1.88544L2.53341 5.26877C2.00035 5.40836 1.52834 5.72016 1.19077 6.15569C0.8532 6.59121 0.668979 7.12607 0.666748 7.6771V11.0104C0.668198 11.5262 0.829147 12.0289 1.12753 12.4497C1.42591 12.8704 1.84712 13.1885 2.33341 13.3604V14.3438C2.33341 14.5648 2.42121 14.7767 2.57749 14.933C2.73377 15.0893 2.94573 15.1771 3.16675 15.1771C3.38776 15.1771 3.59972 15.0893 3.756 14.933C3.91228 14.7767 4.00008 14.5648 4.00008 14.3438V13.5104H14.0001V14.3438C14.0001 14.5648 14.0879 14.7767 14.2442 14.933C14.4004 15.0893 14.6124 15.1771 14.8334 15.1771C15.0544 15.1771 15.2664 15.0893 15.4227 14.933C15.579 14.7767 15.6667 14.5648 15.6667 14.3438V13.3604C16.153 13.1885 16.5743 12.8704 16.8726 12.4497C17.171 12.0289 17.332 11.5262 17.3334 11.0104V7.6771C17.3312 7.12607 17.147 6.59121 16.8094 6.15569C16.4718 5.72016 15.9998 5.40836 15.4667 5.26877V5.24377ZM5.24175 2.41044C5.29765 2.24492 5.40416 2.10116 5.54622 1.99947C5.68829 1.89778 5.85871 1.84332 6.03341 1.84377H11.9667C12.1485 1.83428 12.3283 1.88454 12.4788 1.98686C12.6293 2.08919 12.7421 2.23795 12.8001 2.41044L13.6751 5.1771H4.32508L5.24175 2.41044ZM15.6667 11.0104C15.6667 11.2315 15.579 11.4434 15.4227 11.5997C15.2664 11.756 15.0544 11.8438 14.8334 11.8438H3.16675C2.94573 11.8438 2.73377 11.756 2.57749 11.5997C2.42121 11.4434 2.33341 11.2315 2.33341 11.0104V7.6771C2.33341 7.45609 2.42121 7.24413 2.57749 7.08785C2.73377 6.93157 2.94573 6.84377 3.16675 6.84377H14.8334C15.0544 6.84377 15.2664 6.93157 15.4227 7.08785C15.579 7.24413 15.6667 7.45609 15.6667 7.6771V11.0104ZM12.8501 8.5771C12.7467 8.61453 12.6528 8.67424 12.575 8.75201C12.4972 8.82977 12.4375 8.92369 12.4001 9.0271C12.3395 9.17854 12.3246 9.34444 12.3574 9.50424C12.3902 9.66403 12.4691 9.81069 12.5845 9.92603C12.6998 10.0414 12.8465 10.1203 13.0063 10.1531C13.1661 10.1859 13.332 10.1711 13.4834 10.1104C13.5868 10.073 13.6807 10.0133 13.7585 9.93553C13.8363 9.85777 13.896 9.76385 13.9334 9.66044C13.9801 9.56154 14.0029 9.45308 14.0001 9.34377C13.997 9.12313 13.9107 8.9118 13.7584 8.7521C13.6412 8.63647 13.4924 8.55814 13.3308 8.527C13.1691 8.49585 13.0018 8.51329 12.8501 8.5771ZM9.83342 8.51044H8.16675C7.94573 8.51044 7.73377 8.59823 7.57749 8.75451C7.42121 8.91079 7.33342 9.12276 7.33342 9.34377C7.33342 9.56478 7.42121 9.77674 7.57749 9.93302C7.73377 10.0893 7.94573 10.1771 8.16675 10.1771H9.83342C10.0544 10.1771 10.2664 10.0893 10.4227 9.93302C10.579 9.77674 10.6667 9.56478 10.6667 9.34377C10.6667 9.12276 10.579 8.91079 10.4227 8.75451C10.2664 8.59823 10.0544 8.51044 9.83342 8.51044Z" fill="white"/>
</svg>
