<svg width="18" height="14" viewBox="0 0 18 14" fill="none" xmlns="http://www.w3.org/2000/svg">
<path d="M16.5001 5.35319H14.4168C14.3065 5.35364 14.1974 5.37598 14.0959 5.41889C13.9943 5.4618 13.9023 5.52445 13.8251 5.60319L12.7918 6.67819L10.4584 4.01985C10.3805 3.93659 10.2863 3.87022 10.1816 3.82485C10.077 3.77947 9.96415 3.75606 9.85009 3.75606C9.73604 3.75606 9.6232 3.77947 9.51856 3.82485C9.41392 3.87022 9.31971 3.93659 9.24176 4.01985L7.82509 5.43652H6.50009C6.27908 5.43652 6.06712 5.52432 5.91084 5.6806C5.75456 5.83688 5.66676 6.04884 5.66676 6.26985C5.66676 6.49087 5.75456 6.70283 5.91084 6.85911C6.06712 7.01539 6.27908 7.10319 6.50009 7.10319H8.16676C8.27643 7.10382 8.38515 7.0828 8.48668 7.04133C8.58821 6.99986 8.68056 6.93875 8.75842 6.86152L9.83342 5.74485L12.1668 8.40319C12.242 8.48899 12.3341 8.55841 12.4373 8.60715C12.5406 8.65588 12.6527 8.6829 12.7668 8.68652C12.8764 8.68715 12.9851 8.66613 13.0867 8.62466C13.1882 8.58319 13.2806 8.52209 13.3584 8.44485L14.7751 7.01985H16.5001C16.7211 7.01985 16.9331 6.93205 17.0893 6.77577C17.2456 6.61949 17.3334 6.40753 17.3334 6.18652C17.3334 5.96551 17.2456 5.75354 17.0893 5.59726C16.9331 5.44098 16.7211 5.35319 16.5001 5.35319ZM10.3418 9.76985L8.75842 11.3532C8.68096 11.4313 8.58879 11.4933 8.48724 11.5356C8.38569 11.5779 8.27677 11.5997 8.16676 11.5997C8.05675 11.5997 7.94783 11.5779 7.84628 11.5356C7.74473 11.4933 7.65256 11.4313 7.57509 11.3532L3.23342 7.01152C2.94769 6.72595 2.72102 6.38689 2.56638 6.01369C2.41173 5.6405 2.33213 5.24049 2.33213 4.83652C2.33213 4.43255 2.41173 4.03254 2.56638 3.65934C2.72102 3.28615 2.94769 2.94708 3.23342 2.66152C3.80981 2.08699 4.59044 1.76439 5.40426 1.76439C6.21807 1.76439 6.99871 2.08699 7.57509 2.66152C7.65256 2.73963 7.74473 2.80162 7.84628 2.84393C7.94783 2.88624 8.05675 2.90802 8.16676 2.90802C8.27677 2.90802 8.38569 2.88624 8.48724 2.84393C8.58879 2.80162 8.68096 2.73963 8.75842 2.66152C9.34398 2.10462 10.1212 1.79406 10.9293 1.79406C11.7373 1.79406 12.5145 2.10462 13.1001 2.66152C13.2858 2.84964 13.4481 3.05949 13.5834 3.28652C13.7048 3.45336 13.8837 3.56927 14.0855 3.61181C14.2874 3.65435 14.4979 3.6205 14.6762 3.51681C14.8546 3.41312 14.9881 3.24696 15.051 3.05048C15.1139 2.854 15.1017 2.64118 15.0168 2.45319C14.8108 2.11114 14.5646 1.795 14.2834 1.51152C13.4926 0.711395 12.4426 0.219105 11.3217 0.122899C10.2009 0.0266929 9.08237 0.332861 8.16676 0.986519C7.45914 0.476764 6.62445 0.172416 5.75479 0.107061C4.88513 0.0417068 4.01433 0.217887 3.23847 0.61616C2.46262 1.01443 1.81188 1.61931 1.35807 2.36405C0.904256 3.10878 0.665019 3.96441 0.666757 4.83652C0.666508 5.45659 0.789396 6.07055 1.02829 6.64276C1.26719 7.21496 1.61734 7.73403 2.05842 8.16985L6.40009 12.5115C6.86884 12.9797 7.50426 13.2427 8.16676 13.2427C8.82926 13.2427 9.46467 12.9797 9.93342 12.5115L11.5001 10.9449C11.6553 10.7887 11.7424 10.5775 11.7424 10.3574C11.7424 10.1372 11.6553 9.92599 11.5001 9.76985C11.3447 9.61965 11.137 9.53569 10.9209 9.53569C10.7048 9.53569 10.4971 9.61965 10.3418 9.76985Z" fill="white"/>
</svg>
