<svg width="18" height="18" viewBox="0 0 18 18" fill="none" xmlns="http://www.w3.org/2000/svg">
<path d="M13.0333 8.36982C13.3671 8.37395 13.6984 8.31119 14.0075 8.18524C14.3167 8.05929 14.5974 7.8727 14.8333 7.63648L17.1917 5.27815C17.3469 5.12201 17.434 4.9108 17.434 4.69065C17.434 4.4705 17.3469 4.25929 17.1917 4.10315C17.1142 4.02504 17.022 3.96305 16.9205 3.92074C16.8189 3.87843 16.71 3.85665 16.6 3.85665C16.49 3.85665 16.3811 3.87843 16.2795 3.92074C16.178 3.96305 16.0858 4.02504 16.0083 4.10315L13.625 6.45315C13.5475 6.53126 13.4554 6.59325 13.3538 6.63556C13.2523 6.67787 13.1433 6.69965 13.0333 6.69965C12.9233 6.69965 12.8144 6.67787 12.7128 6.63556C12.6113 6.59325 12.5191 6.53126 12.4417 6.45315L15.3917 3.51148C15.4694 3.43378 15.531 3.34154 15.573 3.24002C15.6151 3.13851 15.6367 3.0297 15.6367 2.91982C15.6367 2.80993 15.6151 2.70113 15.573 2.59961C15.531 2.49809 15.4694 2.40585 15.3917 2.32815C15.314 2.25045 15.2217 2.18882 15.1202 2.14677C15.0187 2.10472 14.9099 2.08307 14.8 2.08307C14.6901 2.08307 14.5813 2.10472 14.4798 2.14677C14.3783 2.18882 14.286 2.25045 14.2083 2.32815L11.2667 5.27815C11.1114 5.12201 11.0243 4.9108 11.0243 4.69065C11.0243 4.4705 11.1114 4.25929 11.2667 4.10315L13.625 1.74482C13.7027 1.66712 13.7643 1.57488 13.8064 1.47336C13.8484 1.37184 13.8701 1.26303 13.8701 1.15315C13.8701 1.04327 13.8484 0.93446 13.8064 0.832942C13.7643 0.731423 13.7027 0.639181 13.625 0.561483C13.5473 0.483784 13.455 0.42215 13.3535 0.3801C13.252 0.338049 13.1432 0.316406 13.0333 0.316406C12.9234 0.316406 12.8146 0.338049 12.7131 0.3801C12.6116 0.42215 12.5194 0.483784 12.4417 0.561483L10.0833 2.91982C9.61516 3.38857 9.35219 4.02398 9.35219 4.68648C9.35219 5.34899 9.61516 5.9844 10.0833 6.45315L8.99999 7.52815L2.10832 0.611483L2.02499 0.561483C1.98239 0.524316 1.93468 0.493446 1.88332 0.469816L1.73332 0.411483L1.63332 0.344816H1.57499H1.40832C1.35864 0.336871 1.30801 0.336871 1.25832 0.344816C1.20787 0.363178 1.1602 0.388416 1.11666 0.419816L0.983323 0.503149H0.92499L0.87499 0.586483C0.83972 0.630482 0.809007 0.677947 0.783323 0.728149C0.758917 0.778965 0.739385 0.83198 0.724989 0.886483C0.724989 0.886483 0.724989 0.944816 0.724989 0.978149C0.522769 2.38766 0.651698 3.8249 1.10155 5.17591C1.55141 6.52693 2.30982 7.75456 3.31666 8.76148L5.51666 10.9531L1.00832 15.4531C0.930216 15.5306 0.868221 15.6228 0.825913 15.7243C0.783606 15.8259 0.761824 15.9348 0.761824 16.0448C0.761824 16.1548 0.783606 16.2637 0.825913 16.3653C0.868221 16.4668 0.930216 16.559 1.00832 16.6365C1.08619 16.7137 1.17854 16.7748 1.28007 16.8163C1.3816 16.8578 1.49032 16.8788 1.59999 16.8782C1.70966 16.8788 1.81838 16.8578 1.91991 16.8163C2.02144 16.7748 2.11379 16.7137 2.19166 16.6365L7.24999 11.6531L9.60832 9.29482L11.275 7.62815C11.74 8.09815 12.3722 8.36482 13.0333 8.36982ZM6.65832 9.88648L4.46666 7.68648C3.26537 6.46876 2.5132 4.8792 2.33332 3.17815L7.84166 8.67815L6.65832 9.88648ZM11.8583 10.3615C11.7014 10.2035 11.4881 10.1142 11.2654 10.1135C11.0427 10.1127 10.8288 10.2004 10.6708 10.3573C10.5128 10.5142 10.4236 10.7275 10.4228 10.9502C10.422 11.1729 10.5097 11.3868 10.6667 11.5448L15.9167 16.7948C16.0758 16.9397 16.2849 17.0173 16.5 17.0115C16.6097 17.0121 16.7184 16.9911 16.8199 16.9496C16.9214 16.9082 17.0138 16.8471 17.0917 16.7698C17.1698 16.6923 17.2318 16.6002 17.2741 16.4986C17.3164 16.3971 17.3382 16.2882 17.3382 16.1782C17.3382 16.0681 17.3164 15.9592 17.2741 15.8577C17.2318 15.7561 17.1698 15.664 17.0917 15.5865L11.8583 10.3615Z" fill="white"/>
</svg>
