<svg width="18" height="18" viewBox="0 0 18 18" fill="none" xmlns="http://www.w3.org/2000/svg">
<path d="M15.9296 17.8693H15.6105C11.6627 17.3684 7.99148 15.5732 5.17164 12.7636C2.33747 9.93971 0.524879 6.25208 0.0201788 2.28319L0.0187779 2.27263C-0.0205021 1.988 0.00200561 1.69825 0.0847702 1.42311C0.167534 1.14796 0.308612 0.893876 0.498399 0.678151C0.688185 0.462427 0.922225 0.290129 1.18459 0.172983C1.44695 0.0558386 1.73147 -0.00340122 2.01878 -0.000703511L5.03544 -0.000659404L5.04271 -0.000765023C5.51917 -0.00769251 5.98245 0.155726 6.34912 0.460061C6.71121 0.760594 6.95559 1.17904 7.03959 1.64166C7.04367 1.65963 7.04798 1.67862 7.0525 1.69855C7.17024 2.21782 7.43225 3.37331 7.59932 3.8237C7.68278 4.05499 7.6781 4.30896 7.58612 4.53706C7.49381 4.76598 7.32011 4.95268 7.09842 5.06122L7.03875 5.09044L5.79572 5.91912L6.24428 6.72547C6.83059 7.77944 7.55877 8.74796 8.40847 9.60388L8.41365 9.60902C9.26957 10.4587 10.2381 11.1869 11.292 11.7732L12.2135 12.2858L12.8964 10.8888C13.005 10.6673 13.1916 10.4937 13.4204 10.4014C13.6478 10.3097 13.9008 10.3048 14.1314 10.3873C14.5997 10.5642 15.0802 10.7071 15.569 10.815C15.5854 10.8188 15.6075 10.8244 15.6344 10.8311C15.7792 10.8676 16.0636 10.9391 16.3438 10.9558C16.775 11.0473 17.1646 11.2789 17.4512 11.6154C17.7498 11.966 17.9182 12.4088 17.9282 12.869L17.9282 15.8593L17.9282 15.864C17.9295 16.1469 17.8707 16.4269 17.7558 16.6855C17.641 16.9438 17.4728 17.1748 17.2622 17.3633C16.8953 17.6899 16.4209 17.8701 15.9296 17.8693Z" fill="#00902F"/>
</svg>
