<svg width="18" height="18" viewBox="0 0 18 18" fill="none" xmlns="http://www.w3.org/2000/svg">
<path d="M10.6667 5.34375H11.5001C11.7211 5.34375 11.9331 5.25595 12.0893 5.09967C12.2456 4.94339 12.3334 4.73143 12.3334 4.51042C12.3334 4.2894 12.2456 4.07744 12.0893 3.92116C11.9331 3.76488 11.7211 3.67708 11.5001 3.67708H10.6667C10.4457 3.67708 10.2338 3.76488 10.0775 3.92116C9.92121 4.07744 9.83342 4.2894 9.83342 4.51042C9.83342 4.73143 9.92121 4.94339 10.0775 5.09967C10.2338 5.25595 10.4457 5.34375 10.6667 5.34375ZM10.6667 8.67708H11.5001C11.7211 8.67708 11.9331 8.58929 12.0893 8.43301C12.2456 8.27673 12.3334 8.06476 12.3334 7.84375C12.3334 7.62274 12.2456 7.41078 12.0893 7.25449C11.9331 7.09821 11.7211 7.01042 11.5001 7.01042H10.6667C10.4457 7.01042 10.2338 7.09821 10.0775 7.25449C9.92121 7.41078 9.83342 7.62274 9.83342 7.84375C9.83342 8.06476 9.92121 8.27673 10.0775 8.43301C10.2338 8.58929 10.4457 8.67708 10.6667 8.67708ZM6.50008 5.34375H7.33342C7.55443 5.34375 7.76639 5.25595 7.92267 5.09967C8.07895 4.94339 8.16675 4.73143 8.16675 4.51042C8.16675 4.2894 8.07895 4.07744 7.92267 3.92116C7.76639 3.76488 7.55443 3.67708 7.33342 3.67708H6.50008C6.27907 3.67708 6.06711 3.76488 5.91083 3.92116C5.75455 4.07744 5.66675 4.2894 5.66675 4.51042C5.66675 4.73143 5.75455 4.94339 5.91083 5.09967C6.06711 5.25595 6.27907 5.34375 6.50008 5.34375ZM6.50008 8.67708H7.33342C7.55443 8.67708 7.76639 8.58929 7.92267 8.43301C8.07895 8.27673 8.16675 8.06476 8.16675 7.84375C8.16675 7.62274 8.07895 7.41078 7.92267 7.25449C7.76639 7.09821 7.55443 7.01042 7.33342 7.01042H6.50008C6.27907 7.01042 6.06711 7.09821 5.91083 7.25449C5.75455 7.41078 5.66675 7.62274 5.66675 7.84375C5.66675 8.06476 5.75455 8.27673 5.91083 8.43301C6.06711 8.58929 6.27907 8.67708 6.50008 8.67708ZM16.5001 15.3438H15.6667V1.17708C15.6667 0.95607 15.579 0.744108 15.4227 0.587828C15.2664 0.431547 15.0544 0.34375 14.8334 0.34375H3.16675C2.94573 0.34375 2.73377 0.431547 2.57749 0.587828C2.42121 0.744108 2.33341 0.95607 2.33341 1.17708V15.3438H1.50008C1.27907 15.3438 1.06711 15.4315 0.910826 15.5878C0.754545 15.7441 0.666748 15.9561 0.666748 16.1771C0.666748 16.3981 0.754545 16.6101 0.910826 16.7663C1.06711 16.9226 1.27907 17.0104 1.50008 17.0104H16.5001C16.7211 17.0104 16.9331 16.9226 17.0893 16.7663C17.2456 16.6101 17.3334 16.3981 17.3334 16.1771C17.3334 15.9561 17.2456 15.7441 17.0893 15.5878C16.9331 15.4315 16.7211 15.3438 16.5001 15.3438ZM9.83342 15.3438H8.16675V12.0104H9.83342V15.3438ZM14.0001 15.3438H11.5001V11.1771C11.5001 10.9561 11.4123 10.7441 11.256 10.5878C11.0997 10.4315 10.8878 10.3438 10.6667 10.3438H7.33342C7.1124 10.3438 6.90044 10.4315 6.74416 10.5878C6.58788 10.7441 6.50008 10.9561 6.50008 11.1771V15.3438H4.00008V2.01042H14.0001V15.3438Z" fill="white"/>
</svg>
