<svg width="14" height="14" viewBox="0 0 14 14" fill="none" xmlns="http://www.w3.org/2000/svg">
<path d="M13.4742 12.5276L11.0009 10.0742C11.961 8.87719 12.4259 7.35778 12.3001 5.82845C12.1743 4.29911 11.4674 2.8761 10.3246 1.85201C9.18182 0.827917 7.69012 0.280586 6.15619 0.32256C4.62227 0.364533 3.16273 0.992621 2.07767 2.07767C0.992621 3.16273 0.364533 4.62227 0.32256 6.15619C0.280586 7.69012 0.827917 9.18182 1.85201 10.3246C2.8761 11.4674 4.29911 12.1743 5.82845 12.3001C7.35778 12.4259 8.87719 11.961 10.0742 11.0009L12.5276 13.4542C12.5896 13.5167 12.6633 13.5663 12.7445 13.6002C12.8258 13.634 12.9129 13.6514 13.0009 13.6514C13.0889 13.6514 13.1761 13.634 13.2573 13.6002C13.3385 13.5663 13.4123 13.5167 13.4742 13.4542C13.5944 13.3299 13.6616 13.1638 13.6616 12.9909C13.6616 12.818 13.5944 12.6519 13.4742 12.5276ZM6.33425 11.0009C5.41127 11.0009 4.50901 10.7272 3.74158 10.2144C2.97416 9.70166 2.37602 8.97282 2.02281 8.1201C1.6696 7.26738 1.57718 6.32907 1.75725 5.42382C1.93731 4.51858 2.38177 3.68706 3.03441 3.03441C3.68706 2.38177 4.51858 1.93731 5.42382 1.75725C6.32907 1.57718 7.26738 1.6696 8.1201 2.02281C8.97282 2.37602 9.70166 2.97416 10.2144 3.74158C10.7272 4.50901 11.0009 5.41127 11.0009 6.33425C11.0009 7.57192 10.5092 8.75891 9.63408 9.63408C8.75891 10.5092 7.57192 11.0009 6.33425 11.0009Z" fill="white"/>
</svg>
