<svg width="31" height="37" viewBox="0 0 31 37" fill="none" xmlns="http://www.w3.org/2000/svg">
<path d="M0.299805 28.09C2.59345 17.9413 7.49415 8.5661 14.5181 0.890038C14.643 0.754163 14.7948 0.645694 14.9637 0.571495C15.1327 0.497296 15.3153 0.458984 15.4998 0.458984C15.6844 0.458984 15.8669 0.497296 16.0359 0.571495C16.2049 0.645694 16.3566 0.754163 16.4815 0.890038C16.7581 1.19004 16.9881 1.44337 17.1698 1.64837C23.8307 9.18483 28.4842 18.279 30.6998 28.09C27.1315 28.8417 23.4665 29.335 19.7265 29.5467L16.2448 36.51C16.1755 36.6483 16.0691 36.7645 15.9376 36.8457C15.806 36.927 15.6544 36.97 15.4998 36.97C15.3452 36.97 15.1936 36.927 15.062 36.8457C14.9305 36.7645 14.8241 36.6483 14.7548 36.51L11.2731 29.5467C7.5839 29.3382 3.91568 28.8512 0.299805 28.09ZM11.4631 26.2184L13.3915 26.3284L15.4998 30.545L17.6081 26.3284L19.5365 26.2184C21.896 26.0849 24.2474 25.8323 26.5815 25.4617C24.3702 17.8815 20.5952 10.8488 15.4998 4.81671C10.4044 10.8488 6.62941 17.8815 4.41814 25.4617C6.74314 25.8317 9.09314 26.085 11.4631 26.2184ZM15.4998 23C14.1737 23 12.902 22.4733 11.9643 21.5356C11.0266 20.5979 10.4998 19.3261 10.4998 18C10.4998 16.674 11.0266 15.4022 11.9643 14.4645C12.902 13.5268 14.1737 13 15.4998 13C16.8259 13 18.0977 13.5268 19.0353 14.4645C19.973 15.4022 20.4998 16.674 20.4998 18C20.4998 19.3261 19.973 20.5979 19.0353 21.5356C18.0977 22.4733 16.8259 23 15.4998 23ZM15.4998 19.6667C15.9418 19.6667 16.3658 19.4911 16.6783 19.1785C16.9909 18.866 17.1665 18.4421 17.1665 18C17.1665 17.558 16.9909 17.1341 16.6783 16.8215C16.3658 16.509 15.9418 16.3334 15.4998 16.3334C15.0578 16.3334 14.6339 16.509 14.3213 16.8215C14.0087 17.1341 13.8331 17.558 13.8331 18C13.8331 18.4421 14.0087 18.866 14.3213 19.1785C14.6339 19.4911 15.0578 19.6667 15.4998 19.6667Z" fill="#00902F"/>
</svg>
