<svg width="20" height="20" viewBox="0 0 20 20" fill="none" xmlns="http://www.w3.org/2000/svg">
<path d="M5.70501 13.29L3.40501 11L12.995 11C13.2602 11 13.5146 10.8946 13.7021 10.7071C13.8897 10.5196 13.995 10.2652 13.995 10C13.995 9.73478 13.8897 9.48043 13.7021 9.29289C13.5146 9.10536 13.2602 9 12.995 9L3.40501 9L5.70501 6.71C5.79874 6.61704 5.87314 6.50644 5.9239 6.38458C5.97467 6.26272 6.00081 6.13201 6.00081 6C6.00081 5.86799 5.97467 5.73728 5.9239 5.61542C5.87314 5.49356 5.79874 5.38296 5.70501 5.29C5.61205 5.19627 5.50145 5.12188 5.37959 5.07111C5.25773 5.02034 5.12702 4.9942 4.99501 4.9942C4.863 4.9942 4.7323 5.02034 4.61044 5.07111C4.48858 5.12188 4.37798 5.19627 4.28501 5.29L0.285013 9.29C0.193972 9.3851 0.122607 9.49725 0.0750131 9.62C-0.0250049 9.86346 -0.0250049 10.1365 0.0750131 10.38C0.122607 10.5028 0.193973 10.6149 0.285013 10.71L4.28501 14.71C4.37825 14.8032 4.48894 14.8772 4.61076 14.9277C4.73259 14.9781 4.86315 15.0041 4.99501 15.0041C5.12687 15.0041 5.25744 14.9781 5.37926 14.9277C5.50108 14.8772 5.61178 14.8032 5.70501 14.71C5.79825 14.6168 5.87221 14.5061 5.92267 14.3842C5.97313 14.2624 5.9991 14.1319 5.9991 14C5.9991 13.8681 5.97313 13.7376 5.92267 13.6158C5.87221 13.4939 5.79825 13.3832 5.70501 13.29ZM9.99501 1C9.99501 1.26522 10.1004 1.51957 10.2879 1.70711C10.4754 1.89464 10.7298 2 10.995 2L16.995 2C17.2602 2 17.5146 2.10536 17.7021 2.29289C17.8897 2.48043 17.995 2.73478 17.995 3L17.995 17C17.995 17.2652 17.8897 17.5196 17.7021 17.7071C17.5146 17.8946 17.2602 18 16.995 18L10.995 18C10.7298 18 10.4754 18.1054 10.2879 18.2929C10.1004 18.4804 9.99501 18.7348 9.99501 19C9.99501 19.2652 10.1004 19.5196 10.2879 19.7071C10.4754 19.8946 10.7298 20 10.995 20L16.995 20C17.7907 20 18.5537 19.6839 19.1163 19.1213C19.6789 18.5587 19.995 17.7956 19.995 17L19.995 3C19.995 2.20435 19.6789 1.44129 19.1163 0.878678C18.5537 0.31607 17.7907 -7.77655e-07 16.995 -7.42876e-07L10.995 -4.80607e-07C10.7298 -4.69014e-07 10.4754 0.105356 10.2879 0.292892C10.1004 0.480428 9.99501 0.734783 9.99501 1Z" fill="white"/>
</svg>
