<svg width="41" height="31" viewBox="0 0 41 31" fill="none" xmlns="http://www.w3.org/2000/svg">
<path d="M0.5 3.75C0.5 2.75544 0.895088 1.80161 1.59835 1.09835C2.30161 0.395088 3.25544 0 4.25 0H26.75C27.7446 0 28.6984 0.395088 29.4017 1.09835C30.1049 1.80161 30.5 2.75544 30.5 3.75V7.5H33.05C33.6118 7.5005 34.1664 7.62724 34.6727 7.87087C35.179 8.11449 35.624 8.46876 35.975 8.9075L39.6775 13.5325C40.2102 14.198 40.5003 15.0251 40.5 15.8775V21.25C40.5 22.2446 40.1049 23.1984 39.4016 23.9017C38.6984 24.6049 37.7446 25 36.75 25H35.5C35.5 26.3261 34.9732 27.5979 34.0355 28.5355C33.0979 29.4732 31.8261 30 30.5 30C29.1739 30 27.9021 29.4732 26.9645 28.5355C26.0268 27.5979 25.5 26.3261 25.5 25H13C13.0014 25.6665 12.8696 26.3265 12.6123 26.9413C12.355 27.556 11.9774 28.1132 11.5016 28.5799C11.0259 29.0467 10.4616 29.4136 9.84205 29.6591C9.22246 29.9046 8.56004 30.0238 7.89373 30.0097C7.22742 29.9955 6.57067 29.8483 5.96207 29.5766C5.35348 29.305 4.80534 28.9144 4.34987 28.4279C3.8944 27.9413 3.54079 27.3687 3.30984 26.7435C3.07888 26.1183 2.97524 25.4533 3.005 24.7875C2.27262 24.5297 1.63831 24.051 1.18961 23.4173C0.740914 22.7837 0.499958 22.0264 0.5 21.25L0.5 3.75ZM3.735 22.39C4.187 21.65 4.82378 21.0403 5.58275 20.6209C6.34171 20.2015 7.19675 19.9868 8.06382 19.9979C8.93089 20.009 9.78015 20.2455 10.5281 20.6842C11.2761 21.1229 11.8971 21.7487 12.33 22.5H26.17C26.6098 21.7407 27.2407 21.1098 28 20.67V3.75C28 3.41848 27.8683 3.10054 27.6339 2.86612C27.3995 2.6317 27.0815 2.5 26.75 2.5H4.25C3.91848 2.5 3.60054 2.6317 3.36612 2.86612C3.1317 3.10054 3 3.41848 3 3.75V21.25C2.9998 21.4906 3.06905 21.7261 3.19943 21.9284C3.3298 22.1306 3.51577 22.2909 3.735 22.39ZM30.5 20C31.3777 20 32.2399 20.2311 32.9999 20.6699C33.76 21.1087 34.3912 21.7399 34.83 22.5H36.75C37.0815 22.5 37.3995 22.3683 37.6339 22.1339C37.8683 21.8995 38 21.5815 38 21.25V15.875C37.9995 15.5913 37.9025 15.3163 37.725 15.095L34.025 10.47C33.9081 10.3236 33.7598 10.2054 33.591 10.124C33.4222 10.0426 33.2374 10.0003 33.05 10H30.5V20ZM8 22.5C7.33696 22.5 6.70107 22.7634 6.23223 23.2322C5.76339 23.7011 5.5 24.337 5.5 25C5.5 25.663 5.76339 26.2989 6.23223 26.7678C6.70107 27.2366 7.33696 27.5 8 27.5C8.66304 27.5 9.29893 27.2366 9.76777 26.7678C10.2366 26.2989 10.5 25.663 10.5 25C10.5 24.337 10.2366 23.7011 9.76777 23.2322C9.29893 22.7634 8.66304 22.5 8 22.5ZM30.5 22.5C29.837 22.5 29.2011 22.7634 28.7322 23.2322C28.2634 23.7011 28 24.337 28 25C28 25.663 28.2634 26.2989 28.7322 26.7678C29.2011 27.2366 29.837 27.5 30.5 27.5C31.163 27.5 31.7989 27.2366 32.2678 26.7678C32.7366 26.2989 33 25.663 33 25C33 24.337 32.7366 23.7011 32.2678 23.2322C31.7989 22.7634 31.163 22.5 30.5 22.5Z" fill="#00902F"/>
</svg>
