<svg width="14" height="12" viewBox="0 0 14 12" fill="none" xmlns="http://www.w3.org/2000/svg">
<path d="M13.4116 1.30437C13.4116 1.20133 13.3844 1.10012 13.3326 1.01104C13.2809 0.921953 13.2064 0.848182 13.1168 0.797236C13.0273 0.746291 12.9258 0.719991 12.8228 0.721014C12.7198 0.722038 12.6188 0.750348 12.5303 0.803063C12.1889 1.00629 11.8213 1.16192 11.4377 1.26565C10.89 0.795615 10.1913 0.538407 9.46956 0.541036C8.67773 0.541947 7.91724 0.850548 7.34869 1.40167C6.78013 1.9528 6.448 2.70331 6.42244 3.49473C4.86143 3.2458 3.44665 2.43104 2.44787 1.20581C2.38769 1.1328 2.31084 1.07533 2.22379 1.03825C2.13674 1.00117 2.04205 0.985563 1.94771 0.992751C1.85342 1.00052 1.76244 1.03113 1.68264 1.08195C1.60284 1.13277 1.53662 1.20226 1.4897 1.28442C1.24909 1.70431 1.1109 2.17503 1.08636 2.65835C1.06181 3.14167 1.15159 3.62396 1.34842 4.06607L1.34729 4.06721C1.25882 4.1217 1.18581 4.19797 1.13525 4.28873C1.08468 4.37949 1.05824 4.48171 1.05847 4.58561C1.0574 4.67131 1.06254 4.75699 1.07385 4.84195C1.13343 5.57594 1.45872 6.26299 1.98873 6.77424C1.95277 6.84274 1.93083 6.91772 1.92418 6.99479C1.91752 7.07186 1.9263 7.14949 1.94999 7.22314C2.18105 7.94305 2.67244 8.55084 3.328 8.92756C2.66197 9.18511 1.94283 9.27491 1.23392 9.18904C1.10271 9.17257 0.969805 9.20119 0.856999 9.2702C0.744193 9.3392 0.658187 9.44449 0.613088 9.5688C0.56799 9.69311 0.566477 9.82905 0.608798 9.95433C0.65112 10.0796 0.734762 10.1868 0.846005 10.2583C2.06523 11.0436 3.48482 11.4611 4.93504 11.4609C6.57961 11.4794 8.18418 10.9538 9.49918 9.96604C10.8142 8.97824 11.7658 7.58355 12.2062 5.99892C12.4121 5.30862 12.5173 4.59219 12.5184 3.87183C12.5184 3.83366 12.5184 3.79436 12.5178 3.75505C12.8224 3.42659 13.0583 3.04064 13.2118 2.61982C13.3652 2.199 13.4332 1.75178 13.4116 1.30437ZM11.4827 3.17798C11.3864 3.29193 11.3376 3.43861 11.3466 3.58757C11.3523 3.68382 11.3517 3.78065 11.3517 3.87183C11.3505 4.48056 11.2613 5.08592 11.0868 5.66911C10.7272 7.01743 9.92547 8.20605 8.81009 9.04463C7.69471 9.8832 6.33018 10.3232 4.93504 10.2942C4.43388 10.2943 3.93446 10.2355 3.44708 10.1187C4.06857 9.91845 4.64968 9.60967 5.16347 9.20671C5.2581 9.1322 5.32736 9.03023 5.36174 8.9148C5.39612 8.79937 5.39393 8.67612 5.35549 8.56198C5.31704 8.44784 5.24422 8.34838 5.14701 8.27727C5.0498 8.20616 4.93296 8.16687 4.81254 8.1648C4.32769 8.15726 3.8647 7.96181 3.52111 7.61963C3.60827 7.60311 3.69486 7.58261 3.78088 7.55811C3.90689 7.52224 4.01716 7.44501 4.09394 7.33886C4.17071 7.2327 4.20953 7.10379 4.20413 6.97289C4.19874 6.84199 4.14945 6.71672 4.0642 6.61724C3.97895 6.51776 3.8627 6.44986 3.73417 6.42448C3.45273 6.3689 3.1879 6.24917 2.96027 6.07459C2.73264 5.90001 2.54833 5.67529 2.42167 5.41789C2.52709 5.43228 2.63319 5.44122 2.73954 5.44466C2.86588 5.44657 2.98955 5.40825 3.09268 5.33523C3.1958 5.26222 3.27303 5.1583 3.31319 5.03849C3.35168 4.91761 3.3497 4.78747 3.30755 4.6678C3.2654 4.54814 3.18538 4.44549 3.07963 4.37541C2.82305 4.20447 2.61287 3.97257 2.46792 3.70047C2.32297 3.42836 2.24777 3.12455 2.24906 2.81625C2.24906 2.77752 2.2502 2.73878 2.25248 2.70061C3.55988 3.91993 5.25567 4.63871 7.04106 4.73031C7.13119 4.73386 7.22094 4.71689 7.30354 4.68067C7.38614 4.64445 7.45943 4.58994 7.51787 4.52125C7.57573 4.45189 7.61669 4.37005 7.63755 4.28217C7.6584 4.19429 7.65857 4.10278 7.63804 4.01482C7.60468 3.87562 7.58767 3.733 7.58734 3.58985C7.58787 3.09083 7.78634 2.6124 8.13921 2.25954C8.49207 1.90668 8.9705 1.70821 9.46952 1.70768C9.72627 1.707 9.98036 1.75954 10.2158 1.862C10.4512 1.96446 10.6628 2.11462 10.8373 2.30298C10.9046 2.37536 10.9892 2.42933 11.0833 2.45974C11.1773 2.49016 11.2775 2.49601 11.3745 2.47675C11.6141 2.43012 11.8503 2.36731 12.0814 2.28877C11.9237 2.61133 11.7223 2.91057 11.4827 3.17798Z" fill="#151515"/>
</svg>
